<?xml version="1.0" encoding="UTF-8"?>
<svg version="1.1" xmlns="http://www.w3.org/2000/svg" width="4096" height="5224">
<path d="M0 0 C1351.68 0 2703.36 0 4096 0 C4096 1723.92 4096 3447.84 4096 5224 C2744.32 5224 1392.64 5224 0 5224 C0 3500.08 0 1776.16 0 0 Z " fill="#FEFEFE" transform="translate(0,0)"/>
<path d="M0 0 C981.42 0 1962.84 0 2974 0 C2974 10.0373094 2973.80589965 19.79432314 2973.046875 29.765625 C2972.94528444 31.15139566 2972.84415192 32.53719997 2972.74343872 33.92303467 C2972.47448927 37.60420866 2972.19869818 41.28483908 2971.92140961 44.96539307 C2971.68994797 48.05039438 2971.46280945 51.13570798 2971.23568535 54.22103119 C2969.76536095 74.18930415 2968.22068829 94.1514536 2966.62658691 114.11022949 C2965.39954384 129.48864314 2964.31615143 144.87159246 2963.32119751 160.26663208 C2962.35530946 175.16714396 2961.24696697 190.05282592 2960.0625 204.9375 C2958.69190816 222.18483451 2957.34280375 239.43319619 2956.0625 256.6875 C2955.98136963 257.78040344 2955.90023926 258.87330688 2955.81665039 259.99932861 C2954.77736078 274.04123487 2953.77924133 288.08575337 2952.8125 302.1328125 C2952.76180862 302.86924736 2952.71111725 303.60568222 2952.65888977 304.36443329 C2952.39877904 308.14447189 2952.13892496 311.92452812 2951.87915039 315.70458984 C2951.82699371 316.46352539 2951.77483704 317.22246094 2951.72109985 318.00439453 C2951.61517662 319.54589657 2951.50928072 321.08740048 2951.40341187 322.62890625 C2949.80005155 345.96612698 2948.0816397 369.29075147 2946.25515747 392.61172485 C2944.31074796 417.48080874 2942.5450557 442.36095919 2940.80840683 467.24533081 C2939.04083623 492.56654514 2937.1981909 517.87949988 2935.21875 543.18502808 C2933.61934167 563.63670997 2932.14098807 584.09311877 2930.75970459 604.56063843 C2929.40654903 624.57296155 2927.89993911 644.57072312 2926.33856201 664.56756592 C2924.79273109 684.37209899 2923.33741132 704.18006132 2922 724 C2920.61436166 744.53041207 2919.09943017 765.04790231 2917.5 785.5625 C2915.96262908 805.28654191 2914.48179066 825.01252898 2913.125 844.75 C2911.43727732 869.2976755 2909.59342181 893.83238725 2907.73281479 918.36745834 C2905.68388837 945.38588567 2903.64478724 972.4033726 2901.8125 999.4375 C2901.73498505 1000.5803949 2901.65747009 1001.72328979 2901.5776062 1002.90081787 C2901.46269333 1004.59515961 2901.46269333 1004.59515961 2901.34545898 1006.32373047 C2900.29936179 1021.74036209 2899.206189 1037.1527881 2898.0625 1052.5625 C2897.98133942 1053.65629974 2897.90017883 1054.75009949 2897.81655884 1055.87704468 C2896.82690992 1069.18417239 2895.81083246 1082.48918023 2894.77734375 1095.79296875 C2894.67191892 1097.15073087 2894.56650106 1098.50849352 2894.46109009 1099.86625671 C2894.40862436 1100.54203042 2894.35615864 1101.21780413 2894.30210304 1101.91405582 C2894.08840616 1104.66681647 2893.87476401 1107.41958136 2893.66119385 1110.17235184 C2893.55359851 1111.55916192 2893.44597311 1112.94596968 2893.33831787 1114.33277512 C2891.72801775 1135.08463719 2890.22769328 1155.84150153 2888.82763672 1176.60876465 C2887.28510443 1199.43713393 2885.55518113 1222.24933179 2883.80321884 1245.0623703 C2881.98053968 1268.80105416 2880.23836015 1292.54166371 2878.63574219 1316.29638672 C2877.45623174 1333.75362673 2876.1468102 1351.19652353 2874.7484436 1368.63751221 C2873.40237507 1385.45936124 2872.19980993 1402.28781883 2871.0625 1419.125 C2869.61086841 1440.61319592 2868.01635641 1462.08704044 2866.33921051 1483.55848694 C2864.6756202 1504.86391208 2863.13311239 1526.17468645 2861.69287109 1547.49658203 C2860.49470202 1565.20499262 2859.17253047 1582.8995094 2857.7517395 1600.59136963 C2856.1398395 1620.70068142 2854.73619059 1640.82213236 2853.39453125 1660.95117188 C2852.68568565 1671.52006763 2851.93693732 1682.07856322 2850.98828125 1692.62890625 C2849.99916695 1703.63695942 2849.25416237 1714.65431038 2848.54031372 1725.68319702 C2846.75142645 1753.20042897 2844.67887131 1780.69379079 2842.5625 1808.1875 C2840.37275658 1836.63908738 2838.25374254 1865.09283032 2836.3125 1893.5625 C2834.88286818 1914.52676211 2833.37668983 1935.48112676 2831.69204712 1956.42678833 C2830.23969216 1974.5092536 2828.97378373 1992.60139463 2827.74972534 2010.70062256 C2826.53143187 2028.68246166 2825.19149735 2046.65049887 2823.75 2064.61572266 C2822.2810649 2082.96306638 2820.99229428 2101.31966348 2819.75100708 2119.6836853 C2818.51323155 2137.96338152 2817.14678755 2156.22883869 2815.68261719 2174.49169922 C2814.50919828 2189.15490501 2813.44690994 2203.82046792 2812.5 2218.5 C2811.48463719 2234.24072699 2810.323042 2249.96453265 2809.0625 2265.6875 C2807.58505313 2284.11744907 2806.24717077 2302.5530618 2805 2321 C2803.62612468 2341.30172348 2802.12995673 2361.58924898 2800.50439453 2381.87231445 C2799.59946615 2393.19304754 2798.73562146 2404.51549953 2797.9296875 2415.84375 C2797.84100403 2417.08631058 2797.75232056 2418.32887115 2797.66094971 2419.60908508 C2797.23296364 2425.61684764 2796.81002425 2431.62490577 2796.39453125 2437.63354492 C2795.18215249 2454.93591724 2793.39061053 2471.80113205 2789.625 2488.75 C2789.45692841 2489.51103027 2789.28885681 2490.27206055 2789.11569214 2491.05615234 C2783.50418151 2516.15503872 2775.46302792 2540.94399014 2764 2564 C2763.31530402 2565.41873942 2762.63170396 2566.83800827 2761.94921875 2568.2578125 C2752.3180679 2588.10226791 2740.56303934 2606.61279543 2727 2624 C2726.00226562 2625.28777344 2726.00226562 2625.28777344 2724.984375 2626.6015625 C2720.89426767 2631.80276198 2716.59451925 2636.76324672 2712.1328125 2641.6484375 C2710.31631319 2643.65124444 2708.55945881 2645.68700844 2706.8125 2647.75 C2698.94459064 2656.77603621 2690.24066505 2665.38632384 2681 2673 C2680.46745605 2673.44633789 2679.93491211 2673.89267578 2679.38623047 2674.35253906 C2663.83826246 2687.37079494 2647.49826697 2698.759429 2630 2709 C2629.27731934 2709.42522949 2628.55463867 2709.85045898 2627.81005859 2710.28857422 C2607.836707 2721.96026316 2586.86050397 2730.53814081 2565 2738 C2563.9996875 2738.34828857 2562.999375 2738.69657715 2561.96875 2739.05541992 C2555.45951625 2741.28773988 2548.97198104 2743.09857206 2542.25 2744.5625 C2540.81587769 2744.87936768 2540.81587769 2744.87936768 2539.3527832 2745.20263672 C2536.57052676 2745.81158341 2533.78595844 2746.40825056 2531 2747 C2529.93241455 2747.23033936 2529.93241455 2747.23033936 2528.84326172 2747.46533203 C2516.0441677 2750.19258552 2503.01217643 2751.69504859 2490 2753 C2489.18837636 2753.08170576 2488.37675273 2753.16341151 2487.54053444 2753.2475932 C2479.62472414 2753.98107738 2471.78409394 2754.14110171 2463.8377974 2754.1276505 C2462.43606302 2754.12889591 2461.03432898 2754.13057825 2459.63259558 2754.13265286 C2455.78994972 2754.13708099 2451.94732811 2754.13533292 2448.10468163 2754.13255108 C2443.90505334 2754.13062203 2439.70542964 2754.13451508 2435.50580263 2754.13764787 C2428.12008653 2754.14235535 2420.73437714 2754.14334772 2413.34865978 2754.14191952 C2402.29165531 2754.13979714 2391.23465777 2754.14341352 2380.17765436 2754.1481343 C2361.33248005 2754.15600627 2342.48730763 2754.15909627 2323.64213181 2754.15958023 C2304.54156527 2754.16008256 2285.44100086 2754.16272893 2266.34043503 2754.16798782 C2265.13440335 2754.16831796 2263.92837167 2754.16864809 2262.68579358 2754.16898823 C2257.77384296 2754.17033822 2252.86189234 2754.17170089 2247.94994173 2754.17308033 C2193.93344517 2754.18822303 2139.91694916 2754.19502251 2085.90045096 2754.1995023 C2085.2172963 2754.19955899 2084.53414163 2754.19961568 2083.83028531 2754.19967409 C2080.37467354 2754.19996061 2076.91906176 2754.20024564 2073.46344999 2754.2005282 C2044.50009853 2754.20290423 2015.5367473 2754.20661411 1986.57339602 2754.2105653 C1972.69862124 2754.21245794 1958.82384644 2754.21428644 1944.94907165 2754.2160995 C1943.91395178 2754.21623479 1943.91395178 2754.21623479 1942.8579204 2754.2163728 C1909.64546256 2754.22070899 1876.43300467 2754.22463733 1843.22054672 2754.22809982 C1842.15783731 2754.22821063 1842.15783731 2754.22821063 1841.07365903 2754.22832368 C1795.92568018 2754.23301837 1750.7777014 2754.23584155 1705.62972234 2754.2374866 C1701.92846464 2754.23762218 1698.22720695 2754.23776121 1694.52594925 2754.23790014 C1688.59201689 2754.23812262 1682.65808453 2754.23834398 1676.72415217 2754.23856402 C1675.98884352 2754.23859129 1675.25353487 2754.23861856 1674.49594414 2754.23864666 C1673.00983105 2754.23870177 1671.52371796 2754.23875688 1670.03760487 2754.23881199 C1659.61310056 2754.2391986 1649.18859624 2754.23958655 1638.76409192 2754.23998112 C1635.03401183 2754.24012223 1631.30393174 2754.24026231 1627.57385164 2754.24040002 C1557.14180315 2754.2430036 1486.70975685 2754.24832924 1416.27770996 2754.26428223 C1415.53649945 2754.26445002 1414.79528893 2754.26461781 1414.03161749 2754.26479069 C1390.87329182 2754.27004131 1367.71496621 2754.27561569 1344.55664062 2754.28125 C1320.79395679 2754.28703119 1297.03127294 2754.29276185 1273.26858902 2754.29820633 C1272.53687865 2754.29837414 1271.80516828 2754.29854194 1271.05128486 2754.29871484 C1225.20596208 2754.30921236 1179.3606399 2754.31607085 1133.51531601 2754.31907272 C1132.80694366 2754.31911953 1132.0985713 2754.31916635 1131.36873312 2754.31921458 C1100.25448482 2754.3212655 1069.14023655 2754.32250937 1038.02598819 2754.32286063 C1025.50748177 2754.32300389 1012.98897535 2754.32324255 1000.47046894 2754.32352469 C998.39490579 2754.32357022 996.31934265 2754.32361187 994.24377951 2754.3236528 C962.52014783 2754.32429841 930.79651866 2754.32724635 899.07288837 2754.33711338 C898.04777944 2754.33743194 898.04777944 2754.33743194 897.00196123 2754.33775693 C886.00958042 2754.34118541 875.01719966 2754.34479847 864.02481892 2754.34843333 C818.92284878 2754.36333997 773.82088654 2754.36888614 728.71891366 2754.36069075 C722.57513786 2754.35957543 716.43136204 2754.35856475 710.28758621 2754.35761642 C709.08328291 2754.35742646 707.87897961 2754.35723649 706.63818226 2754.35704076 C687.60090151 2754.35431151 668.56363858 2754.36163496 649.5263617 2754.37318979 C630.78769262 2754.38435285 612.04904861 2754.3847396 593.31037912 2754.37381961 C582.33764132 2754.3677441 571.36497938 2754.36976183 560.3922488 2754.38407158 C553.08543191 2754.39277005 545.7786703 2754.39038987 538.47185674 2754.37937287 C534.34229489 2754.37344578 530.21288068 2754.3718551 526.0833292 2754.38405773 C441.39964102 2754.61736199 359.51573087 2730.73723849 295 2674 C294.26652344 2673.36578125 293.53304688 2672.7315625 292.77734375 2672.078125 C290.83958129 2670.39847404 288.91770839 2668.70249462 287 2667 C286.22269531 2666.31550781 285.44539063 2665.63101563 284.64453125 2664.92578125 C275.86487215 2657.12617712 267.60051215 2648.95381245 260 2640 C258.80310547 2638.63681641 258.80310547 2638.63681641 257.58203125 2637.24609375 C224.94927289 2599.82023008 202.37345241 2554.61243588 189 2507 C188.80067871 2506.2992334 188.60135742 2505.5984668 188.39599609 2504.87646484 C187.10802483 2500.28421318 186.0073226 2495.66045471 185 2491 C184.80164551 2490.08959961 184.60329102 2489.17919922 184.39892578 2488.24121094 C181.57653334 2474.98173515 179.62078371 2461.81543683 178.50390625 2448.30859375 C178.37751563 2446.82803541 178.25096538 2445.3474907 178.12426758 2443.86695862 C176.79650419 2428.17071168 175.71442992 2412.45710207 174.65571213 2396.74084091 C174.38803042 2392.78121212 174.11597276 2388.82188443 173.84399414 2384.86254883 C173.78970151 2384.07197932 173.73540888 2383.28140982 173.67947102 2382.46688366 C173.57062738 2380.88203855 173.46177156 2379.29719427 173.35290337 2377.71235085 C173.19290048 2375.38114557 173.03328681 2373.04991397 172.87379456 2370.71867371 C172.08586242 2359.20651576 171.28111822 2347.69572306 170.4375 2336.1875 C170.38044891 2335.40791931 170.32339783 2334.62833862 170.26461792 2333.82513428 C169.56481598 2324.29494497 168.82780239 2314.76795825 168.0703125 2305.2421875 C167.98876419 2304.21621964 167.90721588 2303.19025177 167.82319641 2302.13319397 C167.74046982 2301.09255295 167.65774323 2300.05191193 167.57250977 2298.97973633 C167.40249989 2296.84065808 167.23249668 2294.7015793 167.0625 2292.5625 C166.9781369 2291.50227631 166.8937738 2290.44205261 166.80685425 2289.34970093 C165.32466253 2270.67274403 164.0138739 2251.98660124 162.74926758 2233.29379272 C161.62104498 2216.64524563 160.400721 2200.00793848 159.0625 2183.375 C157.32793142 2161.81037355 155.81605372 2140.23355532 154.33921051 2118.65013123 C152.89965136 2097.61866491 151.38350179 2076.59756123 149.69287109 2055.58447266 C148.24026778 2037.49825141 146.97403769 2019.40236052 145.74972534 2001.29937744 C144.601877 1984.35729851 143.35815099 1967.42648728 142 1950.5 C140.54294946 1932.34093848 139.22940473 1914.17587285 138 1896 C136.80805632 1878.38685988 135.54168124 1860.78398199 134.125 1843.1875 C132.26487176 1820.05215497 130.62308823 1796.90294483 129 1773.75 C128.93512894 1772.82487232 128.87025787 1771.89974464 128.80342102 1770.94658279 C128.47830851 1766.30983893 128.15332223 1761.67308622 127.82836914 1757.03633118 C127.73330582 1755.67991233 127.73330582 1755.67991233 127.63632202 1754.29609108 C127.50915606 1752.48138445 127.38201975 1750.66667575 127.25491333 1748.85196495 C126.15196096 1733.10788829 125.02552727 1717.36568044 123.875 1701.625 C123.79604492 1700.54449371 123.71708984 1699.46398743 123.63574219 1698.35073853 C123.32372739 1694.08280465 123.01145252 1689.81488998 122.69866943 1685.54701233 C122.13164854 1677.80893078 121.56880941 1670.07055174 121.0078125 1662.33203125 C119.37141069 1639.76214333 117.7287451 1617.19270664 116.0625 1594.625 C115.98127899 1593.52467438 115.90005798 1592.42434875 115.81637573 1591.29067993 C114.8402078 1578.08763367 113.84102664 1564.88657374 112.8125 1551.6875 C112.39560648 1546.33335096 111.97881035 1540.97919442 111.5625 1535.625 C111.5101482 1534.95193062 111.4577964 1534.27886124 111.40385818 1533.58539581 C109.5944462 1510.30616792 107.93669029 1487.01857818 106.3443985 1463.72357178 C104.76857115 1440.67293449 103.0808494 1417.63405232 101.27910233 1394.59999847 C99.63468816 1373.5737493 98.11405221 1352.54207777 96.69259644 1331.49957275 C95.49388487 1313.78302718 94.16975668 1296.08052284 92.74972534 1278.38043213 C91.28052149 1260.03000242 89.99209997 1241.67029083 88.75 1223.30322266 C87.60205744 1206.35985945 86.35807122 1189.42778397 85 1172.5 C83.56703891 1154.63232538 82.27053804 1136.75926776 81.0625 1118.875 C79.6572647 1098.07359856 78.1233546 1077.28523182 76.5 1056.5 C74.80720643 1034.82261427 73.22403079 1013.14108366 71.76025391 991.44677734 C70.40704259 971.43407213 68.90081645 951.43588077 67.33900833 931.43868256 C65.67556107 910.13419452 64.13304872 888.82437104 62.69287109 867.50341797 C61.49406488 849.78559071 60.16985946 832.08180385 58.74972534 814.38043213 C57.37909808 797.26122906 56.15898454 780.1347606 55 763 C53.80805666 745.38686479 52.54199569 727.78395437 51.125 710.1875 C49.28012937 687.26069412 47.66427951 664.31979526 46.0625 641.375 C44.27740182 615.80497193 42.43950596 590.24149654 40.4375 564.6875 C38.65342697 541.90309654 37.0034724 519.11276106 35.4375 496.3125 C35.33162262 494.77182966 35.22573683 493.2311599 35.11984253 491.69049072 C35.06768743 490.93167414 35.01553232 490.17285755 34.96179676 489.39104652 C34.70256631 485.62006094 34.44318373 481.84908586 34.18359375 478.078125 C34.13298231 477.34278912 34.08237087 476.60745323 34.03022575 475.84983444 C33.05902893 461.75117736 32.04710575 447.65573737 31 433.5625 C30.92046082 432.49139984 30.84092163 431.42029968 30.75897217 430.31674194 C29.80203222 417.460593 28.8172846 404.606705 27.81640625 391.75390625 C27.45114602 387.05920616 27.08603341 382.36449468 26.72134399 377.66975021 C26.61549199 376.30714965 26.50959603 374.9445525 26.40365601 373.58195877 C24.59459611 350.30385193 22.93661233 327.01743766 21.3443985 303.72357178 C19.81475615 281.3485121 18.18597823 258.98402223 16.4375 236.625 C14.85769867 216.42296795 13.36466033 196.21781088 12 176 C10.67922986 156.4364476 9.24602714 136.88395849 7.7203331 117.33542633 C5.85229416 93.39301389 4.05915481 69.44612028 2.35627365 45.49135971 C2.18897305 43.14565353 2.02015022 40.80006169 1.8508606 38.45449829 C1.58477499 34.76514166 1.32271847 31.0755201 1.06376266 27.38565636 C0.92318471 25.39420282 0.77899882 23.40300497 0.63467407 21.41181946 C0.50843155 19.59172615 0.50843155 19.59172615 0.37963867 17.73486328 C0.30589523 16.69403595 0.23215179 15.65320862 0.15617371 14.58084106 C-0.0556119 9.72489811 0 4.86055914 0 0 Z " fill="#FEFEFE" transform="translate(656,1698)"/>
<path d="M0 0 C0.83373589 -0.00165078 1.66747179 -0.00330156 2.52647241 -0.00500236 C5.32012218 -0.00931612 8.11371894 -0.00652956 10.90737003 -0.00377727 C12.93919337 -0.00542743 14.97101639 -0.00751394 17.00283888 -0.00999737 C22.60713614 -0.01556703 28.21141814 -0.01489105 33.81571728 -0.01321978 C39.90511544 -0.01248931 45.99450926 -0.01751016 52.08390558 -0.0217948 C62.76374034 -0.02849666 73.44357045 -0.03147254 84.12340683 -0.03192973 C95.58373745 -0.03243215 107.04406454 -0.03507938 118.50439399 -0.04033732 C119.22814208 -0.04066746 119.95189017 -0.04099759 120.69757002 -0.04133773 C123.64529558 -0.04268773 126.59302115 -0.0440504 129.5407467 -0.04542983 C164.44122306 -0.06173297 199.34169874 -0.06811877 234.24217826 -0.0728777 C251.62368683 -0.07526116 269.00519502 -0.07896472 286.38670329 -0.0829148 C342.14928914 -0.09558012 397.91187498 -0.10636332 453.67446225 -0.10975526 C456.33972184 -0.1099175 459.00498143 -0.11008306 461.67024102 -0.11024964 C467.01541544 -0.11058344 472.36058987 -0.11091392 477.70576429 -0.1112442 C483.9635957 -0.1116311 490.2214271 -0.11202071 496.4792585 -0.11241527 C498.27029755 -0.11252769 500.0613366 -0.1126391 501.85237565 -0.11274952 C559.35720732 -0.11629789 616.86202649 -0.13137144 674.36685338 -0.15468726 C715.68696805 -0.17143407 757.00708035 -0.1869062 798.32719845 -0.19142222 C799.60248762 -0.19156245 799.60248762 -0.19156245 800.90354021 -0.19170551 C819.56972411 -0.1937248 838.23590796 -0.19488065 856.90209196 -0.1952341 C863.58178273 -0.19537027 870.2614735 -0.19557926 876.94116426 -0.19582735 C878.60287015 -0.19588891 880.26457603 -0.19594723 881.92628192 -0.1960023 C908.38100881 -0.19692129 934.83572264 -0.20687966 961.29044523 -0.22145979 C987.94788001 -0.23609279 1014.60529878 -0.24110713 1041.26273687 -0.23304025 C1044.95172962 -0.23192497 1048.64072239 -0.23091428 1052.32971519 -0.22996593 C1053.05281665 -0.22977596 1053.77591812 -0.22958599 1054.52093175 -0.22939027 C1065.94088466 -0.22666347 1077.36080785 -0.23397653 1088.7807543 -0.24553929 C1100.02794494 -0.25671608 1111.27509428 -0.25682639 1122.52228917 -0.24616911 C1128.53137585 -0.24078265 1134.54035981 -0.24004912 1140.54943795 -0.25267783 C1146.02881854 -0.26409682 1151.50801375 -0.26140534 1156.98738822 -0.24801075 C1158.94507336 -0.24559861 1160.90277317 -0.24808223 1162.8604421 -0.25640723 C1182.64981647 -0.33494944 1202.32488015 1.68176174 1221.40256256 7.1276505 C1222.18212311 7.34872472 1222.96168365 7.56979894 1223.76486725 7.79757237 C1251.51205087 15.8818288 1277.83611139 29.77801516 1299.40256256 49.1276505 C1300.24778473 49.87667638 1300.24778473 49.87667638 1301.11008209 50.64083409 C1352.80146545 96.65662033 1366.4259635 155.87642638 1370.75510162 222.38228917 C1370.92258222 224.95367021 1371.09022985 227.52504038 1371.25803131 230.0964005 C1371.30081333 230.75300979 1371.34359535 231.40961907 1371.3876738 232.08612561 C1372.16617557 243.99134004 1373.0432796 255.88807209 1373.95334381 267.7839005 C1374.02072754 268.66514655 1374.08811126 269.5463926 1374.15753692 270.45434308 C1374.82958339 279.23291237 1375.50806768 288.01097931 1376.18926853 296.78884244 C1376.44485206 300.08818481 1376.69868953 303.38766027 1376.95223564 306.68715978 C1377.12522066 308.92878027 1377.30083268 311.17018338 1377.47661346 313.41158605 C1378.06292285 320.99040634 1378.55230261 328.56679375 1378.94011444 336.15818334 C1378.98509897 337.02609643 1379.03008351 337.89400953 1379.07643121 338.78822303 C1379.18585372 340.90132877 1379.29431017 343.01448449 1379.40256256 345.1276505 C1380.3607996 345.12671462 1380.3607996 345.12671462 1381.33839497 345.12575983 C1450.91779387 345.05794598 1520.49719657 344.99512824 1590.07661957 344.95827794 C1591.11665003 344.95772571 1592.1566805 344.95717348 1593.22822705 344.95660452 C1615.83313095 344.94463174 1638.43803521 344.93355118 1661.04293999 344.92338918 C1672.12904147 344.91840001 1683.21514286 344.91321377 1694.3012442 344.90792394 C1695.40442033 344.9074009 1696.50759647 344.90687786 1697.64420218 344.90633898 C1733.3747898 344.88930613 1769.10535204 344.85927027 1804.8359243 344.82246162 C1841.56635854 344.78469183 1878.29677875 344.76009958 1915.02723208 344.75199054 C1920.22005506 344.75083799 1925.41287799 344.74953544 1930.60570091 344.74814153 C1931.62768154 344.74787184 1932.64966216 344.74760214 1933.7026119 344.74732428 C1950.12638171 344.74260499 1966.55010802 344.72407325 1982.97386011 344.70032236 C1999.50180777 344.67671752 2016.02971248 344.66779254 2032.55767638 344.67364499 C2042.36652646 344.67667775 2052.17521886 344.6686622 2061.98404035 344.64446033 C2068.55169128 344.62936895 2075.11923993 344.62905978 2081.68689815 344.64032324 C2085.41926815 344.64631425 2089.15134175 344.64630462 2092.88367892 344.62811777 C2114.05592525 344.53097706 2134.72861257 345.70618219 2154.84006256 352.8776505 C2155.83247955 353.22054112 2156.82489654 353.56343175 2157.84738678 353.916713 C2166.43065926 356.9665644 2174.44565778 360.72041539 2182.40256256 365.1276505 C2183.61174758 365.77172594 2184.82138205 366.41495834 2186.03146881 367.057338 C2198.45719815 373.77481801 2209.1680149 382.43259838 2219.40256256 392.1276505 C2220.34744537 393.00808019 2221.29232818 393.88850987 2222.26584381 394.79561925 C2252.66574808 423.71599201 2271.50147314 466.19943357 2272.62131256 508.05343175 C2273.15664915 539.54571369 2267.68616679 567.87842077 2253.40256256 596.1276505 C2253.07675201 596.77379308 2252.75094146 597.41993566 2252.41525787 598.08565831 C2244.49468288 613.47537655 2233.44033264 626.79957411 2221.40256256 639.1276505 C2220.59552887 639.96973058 2220.59552887 639.96973058 2219.77219146 640.82882237 C2215.59260498 645.12079514 2211.1742136 648.88541329 2206.40256256 652.5026505 C2205.66344635 653.06355382 2204.92433014 653.62445714 2204.16281646 654.20235753 C2182.21503757 670.60335972 2156.40855853 681.45148891 2129.40256256 686.1276505 C2128.43388205 686.30535854 2127.46520155 686.48306658 2126.46716709 686.66615971 C2115.66444328 688.4470975 2104.9999047 688.40616588 2094.07881147 688.3794995 C2091.9182374 688.38161044 2089.75766404 688.38459736 2087.59709225 688.38837484 C2081.65322889 688.39622673 2075.70943031 688.39164013 2069.76556784 688.38503903 C2063.94830015 688.38056529 2058.13104522 688.38557675 2052.31377882 688.39027404 C2040.22582063 688.39969686 2028.13787899 688.39963508 2016.04991899 688.39445321 C2003.73540613 688.38921388 1991.42090439 688.38837933 1979.10639109 688.39281013 C1978.32524707 688.39308841 1977.54410305 688.3933667 1976.739288 688.39365341 C1972.75077558 688.39509346 1968.76226319 688.39660255 1964.7737508 688.39813455 C1935.64544606 688.40916906 1906.51714731 688.41030192 1877.38884109 688.4064362 C1847.86232854 688.40254618 1818.33582077 688.40299428 1788.80930847 688.408746 C1787.87831465 688.40892526 1786.94732083 688.40910451 1785.98811508 688.40928919 C1777.45621025 688.41093203 1768.92430544 688.41261763 1760.39240063 688.41435482 C1738.99690207 688.41870453 1717.60140343 688.42233986 1696.20590466 688.42548716 C1695.22543934 688.42563161 1694.24497402 688.42577606 1693.23479763 688.42592489 C1644.89137004 688.43297714 1596.54794289 688.43233457 1548.20451492 688.4308064 C1547.1565604 688.43077333 1546.10860588 688.43074025 1545.02889516 688.43070618 C1540.78624695 688.43057187 1536.54359874 688.43043672 1532.30095053 688.4303008 C1520.58147175 688.42992564 1508.86199296 688.42956797 1497.14251417 688.42923307 C1496.08443018 688.42920236 1495.02634618 688.42917164 1493.93619904 688.42914 C1445.98624818 688.42776624 1398.03629783 688.43029572 1350.0863471 688.43375914 C1343.67268903 688.43422238 1337.25903095 688.43467424 1330.84537287 688.43512326 C1329.78516662 688.43519754 1328.72496036 688.43527182 1327.63262665 688.43534835 C1325.48928582 688.4354985 1323.345945 688.43564862 1321.20260417 688.43579871 C1315.83581622 688.43617478 1310.46902826 688.43655225 1305.1022403 688.4369298 C1303.5061257 688.437042 1303.5061257 688.437042 1301.87776636 688.43715647 C1296.4969069 688.43753495 1291.11604743 688.43791487 1285.73518797 688.43829742 C1235.51704676 688.44186564 1185.29890553 688.44472995 1135.08076423 688.44689012 C1133.43946839 688.44696097 1133.43946839 688.44696097 1131.76501505 688.44703326 C1062.03531374 688.45002824 992.30561283 688.44990278 922.57591151 688.44746934 C919.14690714 688.44734975 915.71790277 688.44723137 912.2888984 688.44711325 C887.04795602 688.44624182 861.80701364 688.44531122 836.56607126 688.44436262 C834.26410204 688.44427623 831.96213282 688.44418986 829.6601636 688.4441035 C827.35725121 688.44401706 825.05433882 688.44393062 822.75142643 688.44384417 C821.04101274 688.44377999 821.04101274 688.44377999 819.29604524 688.4437145 C813.53447746 688.44349811 807.77290969 688.44328067 802.01134191 688.44306127 C693.18504227 688.43892249 584.35874455 688.43784562 475.53244537 688.4502213 C474.38666263 688.45035158 473.24087989 688.45048187 472.06037646 688.4506161 C437.41275834 688.45456799 402.76514027 688.45892755 368.11752221 688.46338725 C330.23197728 688.46826329 292.34643234 688.47309718 254.46088737 688.477669 C253.32985474 688.47780577 252.19882211 688.47794254 251.03351577 688.47808346 C180.2040504 688.48663752 109.37458559 688.49154177 38.5451197 688.49237657 C36.90430587 688.49239647 36.90430587 688.49239647 35.23034427 688.49241678 C-12.80905928 688.4929921 -60.84846281 688.49270735 -108.88786636 688.49149807 C-127.14444961 688.49103885 -145.40103287 688.49064662 -163.65761613 688.49028731 C-167.93142663 688.49020305 -172.20523713 688.49011378 -176.47904763 688.49002049 C-225.49651107 688.48896483 -274.51397309 688.49004573 -323.53143603 688.49769545 C-325.11720529 688.49794241 -325.11720529 688.49794241 -326.7350103 688.49819437 C-343.74115651 688.50085267 -360.74730269 688.50367177 -377.75344887 688.50649839 C-426.02791328 688.51451219 -474.3023756 688.52086227 -522.5768407 688.51642954 C-523.556297 688.51634014 -524.53575329 688.51625074 -525.54489009 688.51615863 C-546.91307245 688.51417515 -568.28125461 688.51133978 -589.64943675 688.50766811 C-598.17155014 688.50621589 -606.69366356 688.50487166 -615.21577698 688.5035603 C-616.14539546 688.50341424 -617.07501395 688.50326817 -618.03280269 688.50311768 C-647.51912984 688.49853531 -677.0054459 688.50315576 -706.49177147 688.51309489 C-735.52640073 688.52284219 -764.56101391 688.52347394 -793.59564258 688.51083959 C-797.57347799 688.50910985 -801.55131344 688.50748453 -805.52914892 688.50592174 C-806.30787965 688.50561174 -807.08661038 688.50530173 -807.88893902 688.50498234 C-820.15984599 688.50036981 -832.4307269 688.50574978 -844.70163006 688.5154237 C-856.7120773 688.52468701 -868.72248387 688.52327714 -880.73292831 688.51049302 C-887.12494277 688.50412825 -893.51686146 688.50243105 -899.90887067 688.51406023 C-905.71507674 688.52453578 -911.52110566 688.52106587 -917.32730201 688.50675183 C-919.40312599 688.50401951 -921.47896443 688.50622433 -923.5547749 688.51419696 C-972.30749526 688.68861397 -1013.93486349 671.20330199 -1049.59743744 638.1276505 C-1050.18911713 637.59011144 -1050.78079682 637.05257237 -1051.39040619 636.49874425 C-1081.3169973 608.13601301 -1098.63789732 563.40154934 -1099.88649994 522.77999425 C-1100.58380807 482.50917756 -1089.31655391 444.249391 -1064.59743744 412.1276505 C-1063.90263275 411.20854894 -1063.20782807 410.28944737 -1062.49196869 409.34249425 C-1041.93836109 383.15881778 -1013.94197571 364.06270982 -982.59743744 353.1276505 C-981.65642182 352.78089269 -980.71540619 352.43413487 -979.74587494 352.07686925 C-959.39064409 345.12171781 -938.13205966 344.52929074 -916.84297474 344.60364652 C-913.0450232 344.61236805 -909.24714272 344.5975432 -905.4492088 344.5859375 C-898.81812923 344.56880618 -892.18717249 344.56616549 -885.55607659 344.57345319 C-875.69616896 344.58422158 -865.83638091 344.57189103 -855.9764865 344.55508147 C-839.38436161 344.5274362 -822.79227493 344.51814581 -806.20012909 344.51953435 C-789.78603065 344.52084721 -773.37196972 344.51386826 -756.95788056 344.49595952 C-755.93502004 344.49484813 -754.91215952 344.49373674 -753.85830323 344.49259168 C-748.66312491 344.48690412 -743.46794677 344.48106982 -738.27276868 344.47517905 C-701.5325252 344.43378307 -664.79229111 344.41076047 -628.05202729 344.39864659 C-592.37265449 344.38684021 -556.69330244 344.36664696 -521.01394135 344.33517003 C-519.91299066 344.33420208 -518.81203997 344.33323413 -517.67772713 344.33223685 C-506.62092532 344.32250653 -495.56412367 344.31260647 -484.50732213 344.30258208 C-461.9859291 344.28216745 -439.46453516 344.26288534 -416.94314057 344.24428868 C-415.39009853 344.24300419 -415.39009853 344.24300419 -413.80568191 344.24169375 C-344.73627854 344.18469742 -275.66685844 344.15409592 -206.59743744 344.1276505 C-206.55030908 343.44127067 -206.50318073 342.75489083 -206.45462424 342.04771161 C-206.00438977 335.49176183 -205.55367417 328.93584532 -205.10245433 322.37996328 C-204.87064718 319.01174752 -204.6390616 315.64351687 -204.40779358 312.27526402 C-203.0534482 292.55247321 -201.64451603 272.83627034 -200.09743744 253.1276505 C-199.99307346 251.79412739 -199.88875535 250.46060069 -199.78447968 249.12707067 C-198.90365316 237.86474223 -198.90365316 237.86474223 -198.50504547 232.79764867 C-197.91235517 225.24230123 -197.33917806 217.68588795 -196.78832489 210.12737584 C-196.45599619 205.58179242 -196.11434453 201.03693568 -195.77126557 196.49215245 C-195.61733311 194.42281039 -195.46754582 192.35315447 -195.3225351 190.28316808 C-191.66865037 138.25653619 -170.1382801 87.82983418 -130.78493744 52.5651505 C-129.39667225 51.41015938 -127.99961119 50.26571618 -126.59743744 49.1276505 C-125.5451088 48.23992038 -124.49305083 47.35186935 -123.44118744 46.463588 C-92.52714348 20.68702421 -56.35906772 6.16829812 -16.59743744 1.1276505 C-15.39720496 0.957987 -14.19697248 0.78832349 -12.96036932 0.61351867 C-8.62640602 0.07529237 -4.36289365 -0.01234009 0 0 Z " fill="#000000" transform="translate(1556.597437441349,878.8723495006561)"/>
<path d="M0 0 C981.42 0 1962.84 0 2974 0 C2974 10.0373094 2973.80589965 19.79432314 2973.046875 29.765625 C2972.94528444 31.15139566 2972.84415192 32.53719997 2972.74343872 33.92303467 C2972.47448927 37.60420866 2972.19869818 41.28483908 2971.92140961 44.96539307 C2971.68994797 48.05039438 2971.46280945 51.13570798 2971.23568535 54.22103119 C2969.76536095 74.18930415 2968.22068829 94.1514536 2966.62658691 114.11022949 C2965.39954384 129.48864314 2964.31615143 144.87159246 2963.32119751 160.26663208 C2962.35530946 175.16714396 2961.24696697 190.05282592 2960.0625 204.9375 C2958.69190816 222.18483451 2957.34280375 239.43319619 2956.0625 256.6875 C2955.98136963 257.78040344 2955.90023926 258.87330688 2955.81665039 259.99932861 C2954.77736078 274.04123487 2953.77924133 288.08575337 2952.8125 302.1328125 C2952.76180862 302.86924736 2952.71111725 303.60568222 2952.65888977 304.36443329 C2952.39877904 308.14447189 2952.13892496 311.92452812 2951.87915039 315.70458984 C2951.82699371 316.46352539 2951.77483704 317.22246094 2951.72109985 318.00439453 C2951.61517662 319.54589657 2951.50928072 321.08740048 2951.40341187 322.62890625 C2949.80005155 345.96612698 2948.0816397 369.29075147 2946.25515747 392.61172485 C2944.31074796 417.48080874 2942.5450557 442.36095919 2940.80840683 467.24533081 C2939.04083623 492.56654514 2937.1981909 517.87949988 2935.21875 543.18502808 C2933.61934167 563.63670997 2932.14098807 584.09311877 2930.75970459 604.56063843 C2929.40654903 624.57296155 2927.89993911 644.57072312 2926.33856201 664.56756592 C2924.79273109 684.37209899 2923.33741132 704.18006132 2922 724 C2920.61436166 744.53041207 2919.09943017 765.04790231 2917.5 785.5625 C2915.96262908 805.28654191 2914.48179066 825.01252898 2913.125 844.75 C2911.43727732 869.2976755 2909.59342181 893.83238725 2907.73281479 918.36745834 C2905.68388837 945.38588567 2903.64478724 972.4033726 2901.8125 999.4375 C2901.73498505 1000.5803949 2901.65747009 1001.72328979 2901.5776062 1002.90081787 C2901.46269333 1004.59515961 2901.46269333 1004.59515961 2901.34545898 1006.32373047 C2900.29936179 1021.74036209 2899.206189 1037.1527881 2898.0625 1052.5625 C2897.98133942 1053.65629974 2897.90017883 1054.75009949 2897.81655884 1055.87704468 C2896.82690992 1069.18417239 2895.81083246 1082.48918023 2894.77734375 1095.79296875 C2894.67191892 1097.15073087 2894.56650106 1098.50849352 2894.46109009 1099.86625671 C2894.40862436 1100.54203042 2894.35615864 1101.21780413 2894.30210304 1101.91405582 C2894.08840616 1104.66681647 2893.87476401 1107.41958136 2893.66119385 1110.17235184 C2893.55359851 1111.55916192 2893.44597311 1112.94596968 2893.33831787 1114.33277512 C2891.72801775 1135.08463719 2890.22769328 1155.84150153 2888.82763672 1176.60876465 C2887.28510443 1199.43713393 2885.55518113 1222.24933179 2883.80321884 1245.0623703 C2881.98053968 1268.80105416 2880.23836015 1292.54166371 2878.63574219 1316.29638672 C2877.45623174 1333.75362673 2876.1468102 1351.19652353 2874.7484436 1368.63751221 C2873.40237507 1385.45936124 2872.19980993 1402.28781883 2871.0625 1419.125 C2869.61086841 1440.61319592 2868.01635641 1462.08704044 2866.33921051 1483.55848694 C2864.6756202 1504.86391208 2863.13311239 1526.17468645 2861.69287109 1547.49658203 C2860.49470202 1565.20499262 2859.17253047 1582.8995094 2857.7517395 1600.59136963 C2856.1398395 1620.70068142 2854.73619059 1640.82213236 2853.39453125 1660.95117188 C2852.68568565 1671.52006763 2851.93693732 1682.07856322 2850.98828125 1692.62890625 C2849.99916695 1703.63695942 2849.25416237 1714.65431038 2848.54031372 1725.68319702 C2846.75142645 1753.20042897 2844.67887131 1780.69379079 2842.5625 1808.1875 C2840.37275658 1836.63908738 2838.25374254 1865.09283032 2836.3125 1893.5625 C2834.88286818 1914.52676211 2833.37668983 1935.48112676 2831.69204712 1956.42678833 C2830.23969216 1974.5092536 2828.97378373 1992.60139463 2827.74972534 2010.70062256 C2826.53143187 2028.68246166 2825.19149735 2046.65049887 2823.75 2064.61572266 C2822.2810649 2082.96306638 2820.99229428 2101.31966348 2819.75100708 2119.6836853 C2818.51323155 2137.96338152 2817.14678755 2156.22883869 2815.68261719 2174.49169922 C2814.50919828 2189.15490501 2813.44690994 2203.82046792 2812.5 2218.5 C2811.48463719 2234.24072699 2810.323042 2249.96453265 2809.0625 2265.6875 C2807.58505313 2284.11744907 2806.24717077 2302.5530618 2805 2321 C2803.62612468 2341.30172348 2802.12995673 2361.58924898 2800.50439453 2381.87231445 C2799.59946615 2393.19304754 2798.73562146 2404.51549953 2797.9296875 2415.84375 C2797.84100403 2417.08631058 2797.75232056 2418.32887115 2797.66094971 2419.60908508 C2797.23296364 2425.61684764 2796.81002425 2431.62490577 2796.39453125 2437.63354492 C2795.18215249 2454.93591724 2793.39061053 2471.80113205 2789.625 2488.75 C2789.45692841 2489.51103027 2789.28885681 2490.27206055 2789.11569214 2491.05615234 C2783.50418151 2516.15503872 2775.46302792 2540.94399014 2764 2564 C2763.31530402 2565.41873942 2762.63170396 2566.83800827 2761.94921875 2568.2578125 C2752.3180679 2588.10226791 2740.56303934 2606.61279543 2727 2624 C2726.00226562 2625.28777344 2726.00226562 2625.28777344 2724.984375 2626.6015625 C2720.89426767 2631.80276198 2716.59451925 2636.76324672 2712.1328125 2641.6484375 C2710.31631319 2643.65124444 2708.55945881 2645.68700844 2706.8125 2647.75 C2698.94459064 2656.77603621 2690.24066505 2665.38632384 2681 2673 C2680.46745605 2673.44633789 2679.93491211 2673.89267578 2679.38623047 2674.35253906 C2663.83826246 2687.37079494 2647.49826697 2698.759429 2630 2709 C2629.27731934 2709.42522949 2628.55463867 2709.85045898 2627.81005859 2710.28857422 C2607.836707 2721.96026316 2586.86050397 2730.53814081 2565 2738 C2563.9996875 2738.34828857 2562.999375 2738.69657715 2561.96875 2739.05541992 C2555.45951625 2741.28773988 2548.97198104 2743.09857206 2542.25 2744.5625 C2540.81587769 2744.87936768 2540.81587769 2744.87936768 2539.3527832 2745.20263672 C2536.57052676 2745.81158341 2533.78595844 2746.40825056 2531 2747 C2529.93241455 2747.23033936 2529.93241455 2747.23033936 2528.84326172 2747.46533203 C2516.0441677 2750.19258552 2503.01217643 2751.69504859 2490 2753 C2489.18837636 2753.08170576 2488.37675273 2753.16341151 2487.54053444 2753.2475932 C2479.62472414 2753.98107738 2471.78409394 2754.14110171 2463.8377974 2754.1276505 C2462.43606302 2754.12889591 2461.03432898 2754.13057825 2459.63259558 2754.13265286 C2455.78994972 2754.13708099 2451.94732811 2754.13533292 2448.10468163 2754.13255108 C2443.90505334 2754.13062203 2439.70542964 2754.13451508 2435.50580263 2754.13764787 C2428.12008653 2754.14235535 2420.73437714 2754.14334772 2413.34865978 2754.14191952 C2402.29165531 2754.13979714 2391.23465777 2754.14341352 2380.17765436 2754.1481343 C2361.33248005 2754.15600627 2342.48730763 2754.15909627 2323.64213181 2754.15958023 C2304.54156527 2754.16008256 2285.44100086 2754.16272893 2266.34043503 2754.16798782 C2265.13440335 2754.16831796 2263.92837167 2754.16864809 2262.68579358 2754.16898823 C2257.77384296 2754.17033822 2252.86189234 2754.17170089 2247.94994173 2754.17308033 C2193.93344517 2754.18822303 2139.91694916 2754.19502251 2085.90045096 2754.1995023 C2085.2172963 2754.19955899 2084.53414163 2754.19961568 2083.83028531 2754.19967409 C2080.37467354 2754.19996061 2076.91906176 2754.20024564 2073.46344999 2754.2005282 C2044.50009853 2754.20290423 2015.5367473 2754.20661411 1986.57339602 2754.2105653 C1972.69862124 2754.21245794 1958.82384644 2754.21428644 1944.94907165 2754.2160995 C1943.91395178 2754.21623479 1943.91395178 2754.21623479 1942.8579204 2754.2163728 C1909.64546256 2754.22070899 1876.43300467 2754.22463733 1843.22054672 2754.22809982 C1842.15783731 2754.22821063 1842.15783731 2754.22821063 1841.07365903 2754.22832368 C1795.92568018 2754.23301837 1750.7777014 2754.23584155 1705.62972234 2754.2374866 C1701.92846464 2754.23762218 1698.22720695 2754.23776121 1694.52594925 2754.23790014 C1688.59201689 2754.23812262 1682.65808453 2754.23834398 1676.72415217 2754.23856402 C1675.98884352 2754.23859129 1675.25353487 2754.23861856 1674.49594414 2754.23864666 C1673.00983105 2754.23870177 1671.52371796 2754.23875688 1670.03760487 2754.23881199 C1659.61310056 2754.2391986 1649.18859624 2754.23958655 1638.76409192 2754.23998112 C1635.03401183 2754.24012223 1631.30393174 2754.24026231 1627.57385164 2754.24040002 C1557.14180315 2754.2430036 1486.70975685 2754.24832924 1416.27770996 2754.26428223 C1415.53649945 2754.26445002 1414.79528893 2754.26461781 1414.03161749 2754.26479069 C1390.87329182 2754.27004131 1367.71496621 2754.27561569 1344.55664062 2754.28125 C1320.79395679 2754.28703119 1297.03127294 2754.29276185 1273.26858902 2754.29820633 C1272.53687865 2754.29837414 1271.80516828 2754.29854194 1271.05128486 2754.29871484 C1225.20596208 2754.30921236 1179.3606399 2754.31607085 1133.51531601 2754.31907272 C1132.80694366 2754.31911953 1132.0985713 2754.31916635 1131.36873312 2754.31921458 C1100.25448482 2754.3212655 1069.14023655 2754.32250937 1038.02598819 2754.32286063 C1025.50748177 2754.32300389 1012.98897535 2754.32324255 1000.47046894 2754.32352469 C998.39490579 2754.32357022 996.31934265 2754.32361187 994.24377951 2754.3236528 C962.52014783 2754.32429841 930.79651866 2754.32724635 899.07288837 2754.33711338 C898.04777944 2754.33743194 898.04777944 2754.33743194 897.00196123 2754.33775693 C886.00958042 2754.34118541 875.01719966 2754.34479847 864.02481892 2754.34843333 C818.92284878 2754.36333997 773.82088654 2754.36888614 728.71891366 2754.36069075 C722.57513786 2754.35957543 716.43136204 2754.35856475 710.28758621 2754.35761642 C709.08328291 2754.35742646 707.87897961 2754.35723649 706.63818226 2754.35704076 C687.60090151 2754.35431151 668.56363858 2754.36163496 649.5263617 2754.37318979 C630.78769262 2754.38435285 612.04904861 2754.3847396 593.31037912 2754.37381961 C582.33764132 2754.3677441 571.36497938 2754.36976183 560.3922488 2754.38407158 C553.08543191 2754.39277005 545.7786703 2754.39038987 538.47185674 2754.37937287 C534.34229489 2754.37344578 530.21288068 2754.3718551 526.0833292 2754.38405773 C441.39964102 2754.61736199 359.51573087 2730.73723849 295 2674 C294.26652344 2673.36578125 293.53304688 2672.7315625 292.77734375 2672.078125 C290.83958129 2670.39847404 288.91770839 2668.70249462 287 2667 C286.22269531 2666.31550781 285.44539063 2665.63101563 284.64453125 2664.92578125 C275.86487215 2657.12617712 267.60051215 2648.95381245 260 2640 C258.80310547 2638.63681641 258.80310547 2638.63681641 257.58203125 2637.24609375 C224.94927289 2599.82023008 202.37345241 2554.61243588 189 2507 C188.80067871 2506.2992334 188.60135742 2505.5984668 188.39599609 2504.87646484 C187.10802483 2500.28421318 186.0073226 2495.66045471 185 2491 C184.80164551 2490.08959961 184.60329102 2489.17919922 184.39892578 2488.24121094 C181.57653334 2474.98173515 179.62078371 2461.81543683 178.50390625 2448.30859375 C178.37751563 2446.82803541 178.25096538 2445.3474907 178.12426758 2443.86695862 C176.79650419 2428.17071168 175.71442992 2412.45710207 174.65571213 2396.74084091 C174.38803042 2392.78121212 174.11597276 2388.82188443 173.84399414 2384.86254883 C173.78970151 2384.07197932 173.73540888 2383.28140982 173.67947102 2382.46688366 C173.57062738 2380.88203855 173.46177156 2379.29719427 173.35290337 2377.71235085 C173.19290048 2375.38114557 173.03328681 2373.04991397 172.87379456 2370.71867371 C172.08586242 2359.20651576 171.28111822 2347.69572306 170.4375 2336.1875 C170.38044891 2335.40791931 170.32339783 2334.62833862 170.26461792 2333.82513428 C169.56481598 2324.29494497 168.82780239 2314.76795825 168.0703125 2305.2421875 C167.98876419 2304.21621964 167.90721588 2303.19025177 167.82319641 2302.13319397 C167.74046982 2301.09255295 167.65774323 2300.05191193 167.57250977 2298.97973633 C167.40249989 2296.84065808 167.23249668 2294.7015793 167.0625 2292.5625 C166.9781369 2291.50227631 166.8937738 2290.44205261 166.80685425 2289.34970093 C165.32466253 2270.67274403 164.0138739 2251.98660124 162.74926758 2233.29379272 C161.62104498 2216.64524563 160.400721 2200.00793848 159.0625 2183.375 C157.32793142 2161.81037355 155.81605372 2140.23355532 154.33921051 2118.65013123 C152.89965136 2097.61866491 151.38350179 2076.59756123 149.69287109 2055.58447266 C148.24026778 2037.49825141 146.97403769 2019.40236052 145.74972534 2001.29937744 C144.601877 1984.35729851 143.35815099 1967.42648728 142 1950.5 C140.54294946 1932.34093848 139.22940473 1914.17587285 138 1896 C136.80805632 1878.38685988 135.54168124 1860.78398199 134.125 1843.1875 C132.26487176 1820.05215497 130.62308823 1796.90294483 129 1773.75 C128.93512894 1772.82487232 128.87025787 1771.89974464 128.80342102 1770.94658279 C128.47830851 1766.30983893 128.15332223 1761.67308622 127.82836914 1757.03633118 C127.73330582 1755.67991233 127.73330582 1755.67991233 127.63632202 1754.29609108 C127.50915606 1752.48138445 127.38201975 1750.66667575 127.25491333 1748.85196495 C126.15196096 1733.10788829 125.02552727 1717.36568044 123.875 1701.625 C123.79604492 1700.54449371 123.71708984 1699.46398743 123.63574219 1698.35073853 C123.32372739 1694.08280465 123.01145252 1689.81488998 122.69866943 1685.54701233 C122.13164854 1677.80893078 121.56880941 1670.07055174 121.0078125 1662.33203125 C119.37141069 1639.76214333 117.7287451 1617.19270664 116.0625 1594.625 C115.98127899 1593.52467438 115.90005798 1592.42434875 115.81637573 1591.29067993 C114.8402078 1578.08763367 113.84102664 1564.88657374 112.8125 1551.6875 C112.39560648 1546.33335096 111.97881035 1540.97919442 111.5625 1535.625 C111.5101482 1534.95193062 111.4577964 1534.27886124 111.40385818 1533.58539581 C109.5944462 1510.30616792 107.93669029 1487.01857818 106.3443985 1463.72357178 C104.76857115 1440.67293449 103.0808494 1417.63405232 101.27910233 1394.59999847 C99.63468816 1373.5737493 98.11405221 1352.54207777 96.69259644 1331.49957275 C95.49388487 1313.78302718 94.16975668 1296.08052284 92.74972534 1278.38043213 C91.28052149 1260.03000242 89.99209997 1241.67029083 88.75 1223.30322266 C87.60205744 1206.35985945 86.35807122 1189.42778397 85 1172.5 C83.56703891 1154.63232538 82.27053804 1136.75926776 81.0625 1118.875 C79.6572647 1098.07359856 78.1233546 1077.28523182 76.5 1056.5 C74.80720643 1034.82261427 73.22403079 1013.14108366 71.76025391 991.44677734 C70.40704259 971.43407213 68.90081645 951.43588077 67.33900833 931.43868256 C65.67556107 910.13419452 64.13304872 888.82437104 62.69287109 867.50341797 C61.49406488 849.78559071 60.16985946 832.08180385 58.74972534 814.38043213 C57.37909808 797.26122906 56.15898454 780.1347606 55 763 C53.80805666 745.38686479 52.54199569 727.78395437 51.125 710.1875 C49.28012937 687.26069412 47.66427951 664.31979526 46.0625 641.375 C44.27740182 615.80497193 42.43950596 590.24149654 40.4375 564.6875 C38.65342697 541.90309654 37.0034724 519.11276106 35.4375 496.3125 C35.33162262 494.77182966 35.22573683 493.2311599 35.11984253 491.69049072 C35.06768743 490.93167414 35.01553232 490.17285755 34.96179676 489.39104652 C34.70256631 485.62006094 34.44318373 481.84908586 34.18359375 478.078125 C34.13298231 477.34278912 34.08237087 476.60745323 34.03022575 475.84983444 C33.05902893 461.75117736 32.04710575 447.65573737 31 433.5625 C30.92046082 432.49139984 30.84092163 431.42029968 30.75897217 430.31674194 C29.80203222 417.460593 28.8172846 404.606705 27.81640625 391.75390625 C27.45114602 387.05920616 27.08603341 382.36449468 26.72134399 377.66975021 C26.61549199 376.30714965 26.50959603 374.9445525 26.40365601 373.58195877 C24.59459611 350.30385193 22.93661233 327.01743766 21.3443985 303.72357178 C19.81475615 281.3485121 18.18597823 258.98402223 16.4375 236.625 C14.85769867 216.42296795 13.36466033 196.21781088 12 176 C10.67922986 156.4364476 9.24602714 136.88395849 7.7203331 117.33542633 C5.85229416 93.39301389 4.05915481 69.44612028 2.35627365 45.49135971 C2.18897305 43.14565353 2.02015022 40.80006169 1.8508606 38.45449829 C1.58477499 34.76514166 1.32271847 31.0755201 1.06376266 27.38565636 C0.92318471 25.39420282 0.77899882 23.40300497 0.63467407 21.41181946 C0.50843155 19.59172615 0.50843155 19.59172615 0.37963867 17.73486328 C0.30589523 16.69403595 0.23215179 15.65320862 0.15617371 14.58084106 C-0.0556119 9.72489811 0 4.86055914 0 0 Z M159 148 C159.7729778 169.95069413 159.7729778 169.95069413 161.15429688 191.84570312 C161.230271 192.81902588 161.30624512 193.79234863 161.38452148 194.79516602 C161.46387939 195.81151123 161.5432373 196.82785645 161.625 197.875 C161.79545536 200.11128753 161.96535113 202.34761776 162.13476562 204.58398438 C162.47125715 209.01824497 162.80942274 213.45237054 163.14981461 217.88633347 C164.00433072 229.01973223 164.84255828 240.15434475 165.6796875 251.2890625 C165.75324211 252.26719091 165.82679672 253.24531933 165.90258026 254.253088 C166.20466575 258.2702491 166.50671365 262.28741303 166.80867386 266.30458355 C167.50010524 275.50309427 168.19259013 284.70152553 168.88519287 293.89994812 C169.39647474 300.69033337 169.90743949 307.48074246 170.41835403 314.27115536 C170.72163275 318.30173528 171.02498217 322.3323098 171.32873535 326.362854 C173.00246517 348.57259572 174.64927593 370.78350996 176.17578125 393.00390625 C176.22688427 393.74747124 176.27798729 394.49103622 176.33063889 395.25713348 C176.59344301 399.0815491 176.85606578 402.90597716 177.11865234 406.73040771 C177.19761246 407.88040882 177.19761246 407.88040882 177.27816772 409.05364227 C177.38412086 410.59730392 177.49001714 412.14096947 177.59585571 413.68463898 C179.19743904 437.03879467 180.93001755 460.37921217 182.78623581 483.71445847 C184.13057323 500.61624524 185.41594579 517.51691278 186.5 534.4375 C187.82327936 555.08789376 189.40421592 575.71656918 191.0234375 596.34545898 C194.01894152 634.60088073 196.70788007 672.87966324 199.44913888 711.15396547 C199.67958222 714.3712655 199.91009753 717.58856038 200.14061421 720.80585515 C200.37416777 724.06558197 200.60769448 727.32531071 200.84121549 730.58503985 C200.9589568 732.22858358 201.07670261 733.87212698 201.19445288 735.51567006 C201.84479885 744.59339111 202.49454495 753.67115441 203.14282227 762.74902344 C203.84201295 772.53854791 204.54297913 782.32794405 205.24609375 792.1171875 C205.33207801 793.3145423 205.33207801 793.3145423 205.41979933 794.53608608 C207.30574981 820.78560959 209.27522024 847.02796634 211.32945251 873.26486206 C212.65027908 890.17040454 213.85897142 907.08140924 215 924 C216.39549805 944.59196401 217.90244199 965.17285861 219.5 985.75 C219.60792835 987.14131611 219.71584868 988.53263284 219.82376099 989.9239502 C220.03821085 992.68833827 220.25271442 995.45272217 220.4672699 998.21710205 C220.51981871 998.89415443 220.57236752 999.57120682 220.62650871 1000.26877594 C220.73217124 1001.62993825 220.83785992 1002.99109854 220.94357491 1004.35225677 C221.96325299 1017.48323026 222.96284016 1030.6156062 223.9375 1043.75 C224.01533722 1044.79865234 224.09317444 1045.84730469 224.17337036 1046.92773438 C225.28378089 1061.92869862 226.35217492 1076.93249349 227.40625 1091.9375 C227.46797016 1092.81603764 227.52969032 1093.69457527 227.59328079 1094.59973526 C228.10662972 1101.90834811 228.61963785 1109.21698492 229.13213348 1116.52565765 C230.96359634 1142.64199791 232.86246385 1168.75162989 234.86834717 1194.85513306 C236.57944778 1217.14070335 238.17086595 1239.43298525 239.72199249 1261.73017883 C241.04227115 1280.70237365 242.4113913 1299.66801057 243.9375 1318.625 C245.75287686 1341.19803114 247.35332592 1363.78482417 248.9375 1386.375 C249.06727336 1388.22441664 249.19705445 1390.07383274 249.32684326 1391.92324829 C249.77998307 1398.38105524 250.2330367 1404.83886824 250.68580246 1411.29670143 C251.96005933 1429.46993322 253.24960651 1447.64201737 254.5625 1465.8125 C254.63801779 1466.85861576 254.63801779 1466.85861576 254.71506119 1467.92586517 C256.36716698 1490.80139893 258.13176687 1513.66708154 259.94451904 1536.53039551 C261.44084633 1555.42468292 262.82923492 1574.32165141 264.01220703 1593.23828125 C264.55509649 1601.84514925 265.1932995 1610.43383242 265.96484375 1619.0234375 C267.03363302 1630.9563322 267.84598707 1642.90154426 268.631073 1654.85601807 C269.05851885 1661.35107734 269.49555866 1667.84549122 269.93359375 1674.33984375 C269.97813501 1675.00075012 270.02267628 1675.66165649 270.06856728 1676.34259033 C270.97482661 1689.77381124 271.93884854 1703.20035705 272.9375 1716.625 C273.05955811 1718.26698364 273.05955811 1718.26698364 273.18408203 1719.94213867 C274.15025601 1732.90985728 275.14233387 1745.87546937 276.15234375 1758.83984375 C276.56029469 1764.0806982 276.96795057 1769.32157545 277.375 1774.5625 C277.42649578 1775.22529716 277.47799156 1775.88809433 277.53104782 1776.57097626 C279.46317156 1801.45641384 281.25371949 1826.35088424 283 1851.25 C283.06315903 1852.15030315 283.12631805 1853.05060631 283.19139099 1853.97819138 C283.69855896 1861.20820708 284.20545646 1868.43824177 284.71203613 1875.66829872 C285.99585226 1893.98868175 287.30008986 1912.30754328 288.625 1930.625 C288.67641521 1931.33638752 288.72783043 1932.04777504 288.78080368 1932.78071976 C290.21465698 1952.61208972 291.72428342 1972.43647309 293.30767822 1992.25650024 C294.74883228 2010.33231311 296.02137544 2028.41742472 297.25128174 2046.50872803 C298.57485227 2065.97502504 299.97392277 2085.43428539 301.4296875 2104.89111328 C302.37768165 2117.56945128 303.31092441 2130.24869739 304.22265625 2142.9296875 C304.32816308 2144.39641335 304.43367253 2145.86313902 304.53918457 2147.3298645 C304.6988147 2149.54920703 304.85843657 2151.76855014 305.01804733 2153.98789406 C305.178666 2156.22109836 305.33931976 2158.45430013 305.5 2160.6875 C305.55306053 2161.42495705 305.60612106 2162.16241409 305.66078949 2162.92221832 C307.1330242 2183.37391483 308.67303886 2203.8186315 310.30813599 2224.25805664 C311.73237711 2242.10518429 312.97775897 2259.96170539 314.18289185 2277.8248291 C315.5389888 2297.87596637 317.06364015 2317.91110845 318.65989685 2337.94421387 C319.89363334 2353.43193087 321.0910104 2368.92017807 322.13671875 2384.421875 C322.1818523 2385.09088396 322.22698586 2385.75989292 322.27348709 2386.44917488 C322.74412827 2393.44262578 323.20433534 2400.43671254 323.65625 2407.43139648 C324.33333722 2417.83196372 325.04832567 2428.22339332 326.015625 2438.6015625 C326.09092941 2439.42339523 326.16623383 2440.24522797 326.24382019 2441.09196472 C328.55504971 2464.82346254 336.40883596 2488.21254053 348 2509 C348.56203125 2510.03640625 349.1240625 2511.0728125 349.703125 2512.140625 C356.11627321 2523.58839424 363.71955309 2533.99463346 372.69921875 2543.546875 C374.70807389 2545.68874432 376.61130093 2547.87802312 378.5 2550.125 C401.12124791 2575.93307499 434.36176347 2592.27777626 467 2601 C468.11246094 2601.31710938 469.22492188 2601.63421875 470.37109375 2601.9609375 C490.63740983 2607.28446916 512.271181 2606.29364336 533.05445219 2606.25738853 C537.24656813 2606.25234217 541.43866961 2606.25906719 545.6307832 2606.26419219 C552.98763831 2606.27159879 560.34446443 2606.27165637 567.70132124 2606.26680271 C578.71481088 2606.25957259 589.72827571 2606.26394078 600.74176471 2606.27048406 C619.51634646 2606.28129852 638.29091817 2606.28264598 657.06550217 2606.27878571 C676.08445875 2606.27490645 695.10340785 2606.27536921 714.12236404 2606.2810955 C715.32480792 2606.28145433 716.5272518 2606.28181316 717.76613337 2606.28218286 C722.66371304 2606.28365781 727.5612927 2606.28516221 732.45887236 2606.28670432 C778.04937445 2606.30104251 823.63987338 2606.30539386 869.2303772 2606.3031559 C869.90522049 2606.30312283 870.58006379 2606.30308975 871.27535688 2606.30305568 C874.007491 2606.30292136 876.73962512 2606.30278622 879.47175924 2606.3026503 C887.01923969 2606.30227512 894.56672014 2606.30191745 902.11420059 2606.30158257 C902.79565746 2606.30155186 903.47711432 2606.30152114 904.1792214 2606.3014895 C935.08819454 2606.30011456 965.99716689 2606.30264731 996.90613981 2606.30610864 C1001.04294324 2606.30657188 1005.17974667 2606.30702374 1009.3165501 2606.30747276 C1010.34230605 2606.30758418 1010.34230605 2606.30758418 1011.38878434 2606.30769785 C1012.77125722 2606.30784801 1014.1537301 2606.30799812 1015.53620298 2606.30814821 C1018.99788907 2606.30852429 1022.45957515 2606.30890175 1025.92126124 2606.3092793 C1026.60762121 2606.3093541 1027.29398119 2606.3094289 1028.00113995 2606.30950597 C1031.47201024 2606.30988445 1034.94288054 2606.31026437 1038.41375083 2606.31064692 C1070.80374216 2606.31421478 1103.19373352 2606.31707924 1135.58372498 2606.31923962 C1136.28940135 2606.31928686 1136.99507773 2606.31933409 1137.72213824 2606.31938276 C1182.67827572 2606.32237678 1227.6344126 2606.32225306 1272.5905501 2606.31981884 C1274.8005773 2606.31969925 1277.01060449 2606.31958087 1279.22063169 2606.31946275 C1295.48792277 2606.31859135 1311.75521385 2606.31766075 1328.02250493 2606.31671212 C1329.5060237 2606.31662573 1330.98954248 2606.31653936 1332.47306126 2606.316453 C1333.95718398 2606.31636656 1335.4413067 2606.31628012 1336.92542942 2606.31619367 C1337.66028434 2606.31615088 1338.39513925 2606.31610809 1339.1522625 2606.316064 C1342.86533099 2606.31584761 1346.57839949 2606.31563017 1350.29146799 2606.31541077 C1420.42775236 2606.31127185 1490.56403373 2606.3101965 1560.70031738 2606.3225708 C1561.43883471 2606.32270108 1562.17735204 2606.32283137 1562.93824868 2606.3229656 C1585.27114263 2606.3269176 1607.6040365 2606.33127714 1629.93693035 2606.33573675 C1654.35797287 2606.34061291 1678.7790154 2606.34544689 1703.20005798 2606.3500185 C1703.92915732 2606.35015527 1704.65825665 2606.35029204 1705.4094499 2606.35043296 C1751.07839163 2606.35898887 1796.7473325 2606.36389144 1842.41627502 2606.36472607 C1843.12171551 2606.36473934 1843.827156 2606.36475261 1844.55397347 2606.36476628 C1875.53635023 2606.36534163 1906.51872693 2606.36505677 1937.50110366 2606.36384757 C1949.27572427 2606.36338837 1961.05034489 2606.36299613 1972.8249655 2606.36263681 C1975.58126373 2606.36255255 1978.33756196 2606.36246328 1981.09386019 2606.36236999 C2012.69117426 2606.36131484 2044.28848612 2606.36239021 2075.88579941 2606.37004495 C2076.56682313 2606.37020959 2077.24784685 2606.37037423 2077.94950765 2606.37054387 C2088.90388474 2606.373202 2099.8582618 2606.37602114 2110.81263885 2606.37884789 C2156.95223816 2606.39073931 2203.09182784 2606.39177091 2249.23142791 2606.37953053 C2254.11349725 2606.3782787 2258.9955666 2606.37707521 2263.87763596 2606.37590981 C2265.07577523 2606.37561951 2266.2739145 2606.37532922 2267.50836102 2606.37503013 C2286.47563329 2606.37070566 2305.44288862 2606.37643394 2324.41015823 2606.38635 C2343.06298946 2606.39588988 2361.71579456 2606.39470853 2380.36862427 2606.38214377 C2391.30177476 2606.3750978 2402.23485007 2606.37621285 2413.16799519 2606.38949216 C2420.43577232 2606.39749607 2427.70349272 2606.39455347 2434.97126466 2606.38284252 C2439.08677839 2606.37651301 2443.20214397 2606.37469013 2447.31764926 2606.38640973 C2468.37281423 2606.44236282 2489.18166705 2605.9530606 2509.625 2600.3125 C2510.56682129 2600.05831299 2511.50864258 2599.80412598 2512.47900391 2599.54223633 C2561.11785235 2585.91634394 2601.11961674 2552.98082719 2626.10571289 2509.38452148 C2647.41365595 2470.74502113 2649.12787693 2428.83975198 2651.94140625 2385.8203125 C2652.96296961 2370.20356288 2654.15370104 2354.60221399 2655.375 2339 C2655.80255163 2333.51576238 2656.2278745 2328.03135197 2656.65234375 2322.546875 C2656.70651836 2321.84709156 2656.76069298 2321.14730812 2656.81650925 2320.42631912 C2658.23857504 2302.03780222 2659.59241652 2283.64428564 2660.9375 2265.25 C2661.03095451 2263.97283678 2661.03095451 2263.97283678 2661.126297 2262.66987228 C2662.63786254 2242.00720326 2664.12353661 2221.34281622 2665.57421875 2200.67578125 C2665.63883615 2199.75529432 2665.70345356 2198.8348074 2665.77002907 2197.88642693 C2666.28609216 2190.53311143 2666.80168391 2183.17976281 2667.31659317 2175.82636642 C2668.90431255 2153.15379459 2670.54122671 2130.48833351 2672.36480713 2107.83328247 C2673.7984382 2090.00546964 2675.04239134 2072.16752852 2676.24853516 2054.32299805 C2677.5674247 2034.84011196 2679.01965569 2015.37119748 2680.60546875 1995.90820312 C2681.49422801 1984.92846594 2682.27647852 1973.94710435 2682.96875 1962.953125 C2683.91473729 1947.9488887 2685.04031753 1932.96136112 2686.21571732 1917.97337723 C2686.6607668 1912.28496157 2687.0995523 1906.59605613 2687.53954506 1900.90724754 C2687.70650645 1898.74897144 2687.87365591 1896.59070996 2688.04081726 1894.43244934 C2689.06937545 1881.1440596 2690.07619863 1867.85409688 2691.0625 1854.5625 C2691.14371094 1853.46846863 2691.22492187 1852.37443726 2691.30859375 1851.24725342 C2692.64728986 1833.16589138 2693.88971148 1815.07861311 2695.11752319 1796.98944092 C2696.64518559 1774.54905055 2698.34271644 1752.12340328 2700.06639099 1729.69739151 C2702.19050974 1702.05524511 2704.194474 1674.40631767 2706.125 1646.75 C2707.69070446 1624.32666754 2709.26666766 1601.9063554 2711.0625 1579.5 C2712.58015436 1560.547304 2714.00420951 1541.58880871 2715.375 1522.625 C2715.42662922 1521.9112471 2715.47825844 1521.1974942 2715.53145218 1520.46211243 C2716.86876109 1501.96849036 2718.18059069 1483.47312484 2719.4765625 1464.9765625 C2719.98416926 1457.73436057 2720.49192052 1450.49216879 2721 1443.25 C2721.0951804 1441.89299673 2721.0951804 1441.89299673 2721.19228363 1440.50857925 C2722.881346 1416.43667792 2724.62600293 1392.3707387 2726.5 1368.3125 C2728.30303269 1345.14956635 2730.05559175 1321.98364555 2731.75 1298.8125 C2731.84002352 1297.58218678 2731.84002352 1297.58218678 2731.93186569 1296.32701874 C2733.71870003 1271.89973001 2735.46873407 1247.46984793 2737.20703125 1223.0390625 C2737.30390249 1221.67777621 2737.40077546 1220.31649005 2737.49765015 1218.95520401 C2737.79093412 1214.83390698 2738.08418943 1210.7126079 2738.37744141 1206.59130859 C2738.67364805 1202.4285246 2738.96986004 1198.26574099 2739.26609039 1194.10295868 C2739.46356446 1191.32794151 2739.66100389 1188.55292189 2739.85842133 1185.7779007 C2742.36692842 1150.51981294 2744.89622381 1115.26446665 2747.67489624 1080.026474 C2750.08734941 1049.41051019 2752.23741236 1018.77501366 2754.37720299 988.13900852 C2758.04507008 935.63957494 2758.04507008 935.63957494 2760.125 909.625 C2760.20519379 908.62146484 2760.28538757 907.61792969 2760.36801147 906.58398438 C2760.48784897 905.08448242 2760.48784897 905.08448242 2760.61010742 903.5546875 C2761.88614396 887.57847242 2763.06782943 871.5967276 2764.21923828 855.61108398 C2764.39090024 853.22900028 2764.56261499 850.84692038 2764.734375 848.46484375 C2764.87158463 846.56187782 2764.87158463 846.56187782 2765.01156616 844.62046814 C2765.95788379 831.51813136 2766.92461989 818.4173036 2767.890625 805.31640625 C2772.27392607 746.12026401 2772.27392607 746.12026401 2776.41314697 686.90673828 C2777.67003615 668.3221715 2779.08008831 649.75130977 2780.53185654 631.18107605 C2782.47693174 606.29564819 2784.26204211 581.40069377 2786 556.5 C2787.83516659 530.21039935 2789.74196098 503.92973545 2791.80123901 477.65667725 C2793.75175451 452.72705142 2795.5153087 427.78571143 2797.25688934 402.84072495 C2798.79425206 380.82401142 2800.35534725 358.8120145 2802.125 336.8125 C2803.56428462 318.91687538 2804.84415572 301.01501922 2806.04437256 283.10180664 C2807.20319265 265.8568403 2808.47521843 248.62290562 2809.80859375 231.390625 C2809.9693698 229.30757332 2810.13012109 227.22451972 2810.29084778 225.14146423 C2811.01303202 215.79143735 2811.73874709 206.44172648 2812.47740269 197.09298515 C2812.78582744 193.17520407 2813.08957054 189.25706874 2813.39230537 185.3388443 C2813.5345469 183.51188047 2813.67883425 181.68507451 2813.82539177 179.85845184 C2814.02926698 177.31528391 2814.22580769 174.77163812 2814.42089844 172.2277832 C2814.48007855 171.51243188 2814.53925867 170.79708055 2814.60023212 170.06005192 C2815.15311632 162.66072135 2815 155.49641235 2815 148 C1938.52 148 1062.04 148 159 148 Z " fill="#000000" transform="translate(656,1698)"/>
<path d="M0 0 C0.82899028 -0.00292886 1.65798056 -0.00585773 2.51209176 -0.00887535 C5.28357384 -0.01623844 8.05483413 -0.00940998 10.82631499 -0.0026266 C12.84447901 -0.00501706 14.86264214 -0.00828264 16.8808035 -0.0123432 C22.44243943 -0.02097874 28.00400804 -0.01713028 33.56564504 -0.01128747 C39.61032755 -0.00712415 45.65499761 -0.01451516 51.69967711 -0.02043998 C62.29906341 -0.02921452 72.89842782 -0.03057812 83.49781519 -0.02693671 C94.87063948 -0.02306079 106.24345125 -0.02351495 117.61627489 -0.02924651 C118.33464857 -0.02960533 119.05302224 -0.02996416 119.79316482 -0.03033386 C122.71900033 -0.03180877 125.64483581 -0.03331317 128.57067129 -0.03485533 C158.27323905 -0.05049253 187.97579821 -0.05316906 217.67836935 -0.05069926 C221.78276871 -0.05036082 225.88716807 -0.05003872 229.99156743 -0.04973358 C231.21440101 -0.04964201 231.21440101 -0.04964201 232.4619383 -0.0495486 C250.52534141 -0.04827691 268.58874334 -0.0508777 286.6521461 -0.05425965 C290.77616345 -0.05503039 294.90018081 -0.05577511 299.02419816 -0.05652466 C300.67931837 -0.05682635 302.33443857 -0.05712823 303.98955878 -0.0574303 C304.80996899 -0.05757998 305.6303792 -0.05772966 306.47565033 -0.05788388 C308.13510321 -0.05818741 309.79455609 -0.05849209 311.45400896 -0.05879792 C358.54351687 -0.06747167 405.63302373 -0.0721143 452.72253233 -0.06785029 C453.59458354 -0.06777223 454.46663475 -0.06769418 455.36511175 -0.06761376 C465.08953509 -0.06674095 474.81395842 -0.06581168 484.53838175 -0.06486312 C485.41636382 -0.06477761 486.29434589 -0.0646921 487.19893348 -0.064604 C494.49451354 -0.06389318 494.49451354 -0.06389318 497.85083087 -0.06356178 C554.01748818 -0.0580252 610.18412906 -0.06557012 666.35078341 -0.08433264 C680.50432208 -0.08905478 694.65786076 -0.09373526 708.81139952 -0.09816951 C709.68286551 -0.09844283 710.5543315 -0.09871615 711.45220555 -0.09899775 C738.30616249 -0.10736747 765.16011806 -0.11204856 792.01407629 -0.11287707 C793.27849582 -0.11291662 793.27849582 -0.11291662 794.56845917 -0.11295697 C813.07196743 -0.11349772 831.57547558 -0.11312537 850.07898381 -0.11191725 C856.69960339 -0.11149162 863.32022296 -0.1111265 869.94084255 -0.11078781 C871.58790623 -0.11070251 873.2349699 -0.11061358 874.88203358 -0.11052099 C901.13737515 -0.10907163 927.39270555 -0.11620224 953.64804443 -0.12752496 C980.82161176 -0.1391678 1007.99515914 -0.13974655 1035.16872656 -0.12768153 C1038.08588417 -0.12642968 1041.0030418 -0.1252262 1043.92019945 -0.12406081 C1044.63612695 -0.12377052 1045.35205444 -0.12348022 1046.0896767 -0.12318113 C1057.43214349 -0.11885338 1068.77458198 -0.12459065 1080.11704433 -0.134501 C1091.26630598 -0.14403116 1102.41552427 -0.14262043 1113.564787 -0.13029478 C1119.53038629 -0.12400735 1125.49588277 -0.12251705 1131.46147632 -0.13415811 C1136.88617043 -0.14464666 1142.31067403 -0.14138433 1147.73535777 -0.12705358 C1149.68782096 -0.12432016 1151.64029924 -0.12663455 1153.59274825 -0.13456073 C1172.1388683 -0.2047249 1172.1388683 -0.2047249 1180.3339377 3.251849 C1181.2620627 3.60505212 1182.1901877 3.95825525 1183.1464377 4.3221615 C1189.90280996 7.57969812 1195.04063059 11.97692142 1200.3339377 17.251849 C1200.9114377 17.80614587 1201.4889377 18.36044275 1202.0839377 18.9315365 C1212.58928448 29.92932141 1214.44934523 44.96188307 1215.44721895 59.39638025 C1215.54192477 60.68716485 1215.63663058 61.97794946 1215.73420626 63.30784875 C1215.99228597 66.82655036 1216.24225196 70.34578439 1216.49055773 73.86518747 C1216.75322934 77.57097004 1217.02271655 81.27625656 1217.29170138 84.98158532 C1217.62838145 89.62465695 1217.9643177 94.26777743 1218.29702669 98.91113549 C1219.03795158 109.24227778 1219.80583481 119.57110289 1220.59296519 129.89882356 C1220.94433293 134.51596122 1221.2922913 139.13335727 1221.64039809 143.75074178 C1221.91842116 147.43521112 1222.19830085 151.11951892 1222.48252779 154.80351526 C1222.80032404 158.92513171 1223.10842391 163.04742375 1223.41596895 167.16981775 C1223.55621493 168.95819558 1223.55621493 168.95819558 1223.69929415 170.78270227 C1224.3524036 179.67963806 1224.3339377 188.26247117 1224.3339377 197.251849 C799.2939377 197.251849 374.2539377 197.251849 -63.6660623 197.251849 C-63.6660623 184.87492855 -63.6660623 184.87492855 -63.28642362 179.42518884 C-63.20227201 178.19200921 -63.1181204 176.95882959 -63.03141874 175.68828088 C-62.93792143 174.37636773 -62.84442411 173.06445459 -62.74809355 171.7127865 C-62.64938432 170.2910428 -62.55096294 168.86927909 -62.45280546 167.44749719 C-62.18820257 163.63199242 -61.91844168 159.81686998 -61.64717573 156.00183374 C-61.477922 153.61783012 -61.3098877 151.23374353 -61.14222807 148.84962732 C-59.52971941 125.9320308 -57.86855279 103.01783802 -56.13712782 80.10891229 C-55.97962233 78.01593505 -55.82400024 75.92282559 -55.66890043 73.82966882 C-55.37902701 69.92300494 -55.0797532 66.01709251 -54.77934355 62.111224 C-54.69615873 60.97986017 -54.61297392 59.84849633 -54.52726835 58.68284875 C-52.99855641 39.19543754 -48.75629845 24.83363997 -33.6660623 11.48231775 C-23.58780866 3.45628915 -12.77471648 -0.07906183 0 0 Z " fill="#FEFEFE" transform="translate(1562.6660622954369,1026.7481510043144)"/>
<path d="M0 0 C2.43314212 1.89858817 4.73628171 3.86974324 7.015625 5.94921875 C7.6240625 6.46613281 8.2325 6.98304688 8.859375 7.515625 C27.06716756 24.02678234 29.9038588 47.42216229 31.453125 70.51171875 C31.58128065 72.36011998 31.70962235 74.20850831 31.83813477 76.05688477 C32.88051862 91.22737459 33.76695891 106.40667907 34.63647461 121.58789062 C35.62937153 138.90422166 36.75688409 156.20831232 37.953125 173.51171875 C39.39030339 194.31843805 40.71502202 215.12983416 41.953125 235.94921875 C43.36980621 259.76918652 44.90550261 283.57906324 46.515625 307.38671875 C48.13979299 331.40205584 49.67273528 355.42007605 51.078125 379.44921875 C52.26916346 399.81081732 53.5419691 420.16392472 54.953125 440.51171875 C56.55720826 463.65072364 57.99907086 486.79664391 59.390625 509.94921875 C61.18431376 539.78966519 63.09068718 569.62105851 65.078125 599.44921875 C66.90891653 626.92865639 68.68051667 654.40945201 70.31277466 681.90139771 C71.65860071 704.53227156 73.14739377 727.15155796 74.67681885 749.7706604 C76.24644918 772.99136058 77.71885022 796.21526661 79.078125 819.44921875 C80.27355616 839.87288446 81.54451818 860.28889657 82.953125 880.69921875 C84.48273834 902.88255829 85.93204823 925.06965002 87.328125 947.26171875 C87.37847019 948.06191814 87.42881538 948.86211754 87.48068619 949.6865654 C87.74158816 953.83396188 88.00238069 957.98136525 88.26316833 962.12876892 C88.31674437 962.98078321 88.3703204 963.83279751 88.42551994 964.71063042 C88.53563091 966.46195746 88.64571389 968.21328627 88.75576973 969.96461678 C89.68010822 984.6711247 90.61493511 999.37694988 91.55416679 1014.08251381 C91.78605056 1017.7132214 92.01780579 1021.34393718 92.24952698 1024.97465515 C93.16553936 1039.32706268 93.16553936 1039.32706268 94.08340454 1053.67935181 C95.61656267 1077.63000783 97.12420372 1101.5815678 98.546875 1125.5390625 C99.78702968 1146.41414084 101.12605153 1167.28140559 102.52005005 1188.14672852 C103.10853581 1196.95676369 103.69068979 1205.76721909 104.27341652 1214.57763672 C104.40601173 1216.58227824 104.53864988 1218.58691692 104.67133141 1220.59155273 C105.99182709 1240.54293573 107.29606096 1260.49532861 108.578125 1280.44921875 C108.65420549 1281.6325177 108.65420549 1281.6325177 108.73182297 1282.83972168 C109.93661392 1301.58740492 111.10898293 1320.33675007 112.2265625 1339.08984375 C112.27683279 1339.93326576 112.32710308 1340.77668777 112.37889671 1341.64566803 C112.6345223 1345.93641125 112.88981104 1350.22717447 113.14498901 1354.51794434 C113.19582012 1355.37262802 113.24665123 1356.22731171 113.29902267 1357.1078949 C113.4016994 1358.83446619 113.50435293 1360.56103886 113.60698318 1362.28761292 C115.29081057 1390.59979912 117.1106421 1418.90108351 119.015625 1447.19921875 C119.14228264 1449.0817356 119.26893061 1450.96425309 119.39556885 1452.84677124 C119.4892915 1454.23996755 119.4892915 1454.23996755 119.58490753 1455.66130924 C119.89921407 1460.33409117 120.21338165 1465.00688241 120.52734375 1469.6796875 C120.5892112 1470.600362 120.65107864 1471.52103649 120.71482086 1472.46961021 C122.01112669 1491.77381256 123.27087992 1511.08027712 124.5012207 1530.38879395 C124.71501407 1533.74378302 124.93017713 1537.09867905 125.14672852 1540.45349121 C126.10622431 1555.3330144 127.05097754 1570.21217487 127.6953125 1585.109375 C127.74045486 1586.09184708 127.78559723 1587.07431915 127.83210754 1588.08656311 C128.70689322 1610.38065568 121.66419993 1628.46175473 107.02734375 1645.2265625 C96.25665652 1656.74548759 79.41462615 1665.95855793 63.40698242 1667.14208984 C49.69009225 1667.53877495 37.72419822 1667.39161457 25.015625 1661.94921875 C23.96632813 1661.52640625 22.91703125 1661.10359375 21.8359375 1660.66796875 C6.7845928 1653.94373164 -4.71178231 1641.72097795 -12.234375 1627.26171875 C-12.71064331 1626.3641687 -12.71064331 1626.3641687 -13.1965332 1625.44848633 C-19.38792684 1612.87196362 -20.71361233 1599.47254114 -21.51171875 1585.71484375 C-21.62553003 1583.94637436 -21.74065442 1582.17798906 -21.85697937 1580.40968323 C-22.16544578 1575.66238018 -22.45521795 1570.91410782 -22.7412796 1566.16540909 C-23.04698588 1561.14433432 -23.37014428 1556.12437852 -23.69091797 1551.10424805 C-24.41471251 1539.71904431 -25.11159169 1528.33227806 -25.80237579 1516.94503021 C-26.03631955 1513.09418156 -26.2719157 1509.24343501 -26.5076313 1505.39269447 C-27.57992439 1487.87391148 -28.63530203 1470.35416539 -29.675457 1452.8334465 C-30.79657647 1433.95248595 -31.96692329 1415.07500631 -33.171875 1396.19921875 C-33.25068909 1394.9637027 -33.32950317 1393.72818665 -33.41070557 1392.45523071 C-34.08673369 1381.86827211 -34.76858939 1371.28169258 -35.45361328 1360.6953125 C-36.87237683 1338.76230483 -38.26089153 1316.82743924 -39.64581299 1294.89227295 C-42.26926228 1253.20347584 -42.26926228 1253.20347584 -45.02734375 1211.5234375 C-47.45190564 1175.85016059 -49.72812353 1140.16964961 -51.89844894 1104.48000336 C-54.86907487 1055.63361431 -57.94506429 1006.79442447 -61.06919444 957.95763236 C-61.48180353 951.50759993 -61.89388355 945.05753387 -62.3057251 938.60745239 C-64.75408448 900.26938746 -67.24094753 861.9343503 -69.81254649 823.60434556 C-71.47735024 798.78509288 -73.07135627 773.96307466 -74.52893066 749.13067627 C-74.97250299 741.58559047 -75.42220131 734.04086455 -75.87109375 726.49609375 C-75.91853918 725.69766304 -75.96598461 724.89923233 -76.01486778 724.07660675 C-77.22312637 703.7606474 -78.48948919 683.44833315 -79.97290039 663.15039062 C-81.17616712 646.66880592 -82.22788161 630.17912367 -83.21875 613.68359375 C-83.27305365 612.77969658 -83.32735729 611.87579941 -83.3833065 610.94451141 C-83.93587396 601.73622167 -84.48390279 592.52767039 -85.02596188 583.3187561 C-85.28296632 578.95591812 -85.54136033 574.59316369 -85.80078125 570.23046875 C-85.85099237 569.38593643 -85.9012035 568.54140411 -85.95293617 567.67127991 C-86.64834599 556.02386976 -87.43413033 544.38804815 -88.32484436 532.75372314 C-88.94681134 524.60831027 -89.4538422 516.46245987 -89.87521362 508.30441284 C-90.07224507 504.50463081 -90.28065423 500.70546544 -90.48828125 496.90625 C-90.52981827 496.14425797 -90.57135529 495.38226593 -90.614151 494.59718323 C-91.48089371 478.80531573 -92.54705918 463.02535126 -93.671875 447.25 C-95.03745214 428.07213621 -96.31486131 408.89391239 -97.421875 389.69921875 C-98.91320836 363.84613081 -100.54778664 338.00299874 -102.20419312 312.16003418 C-102.77334602 303.27589124 -103.33591742 294.39135057 -103.89415741 285.5065155 C-104.27763596 279.40403538 -104.66202275 273.30161239 -105.046875 267.19921875 C-105.08906158 266.53026581 -105.13124817 265.86131287 -105.17471313 265.17208862 C-106.24494441 248.21223303 -107.37033311 231.25834318 -108.59451294 214.30895996 C-110.20511647 191.86091035 -111.47989646 169.39042038 -112.81207275 146.92453003 C-114.12737235 124.74801989 -115.44903319 102.57529533 -117.171875 80.42578125 C-119.09277964 55.20639829 -117.45012652 31.93336357 -100.57421875 11.84765625 C-74.26054513 -17.60143248 -32.51453162 -22.34310092 0 0 Z " fill="#000000" transform="translate(1473.984375,2217.05078125)"/>
<path d="M0 0 C14.85104757 13.05293867 24.64716721 29.74783251 27 49.5625 C27.13863026 52.34159568 27.15166471 55.11238225 27.13671875 57.89453125 C27.13395432 58.68116653 27.13118988 59.46780182 27.12834167 60.27827454 C27.0625076 67.80273898 26.58747234 75.27290556 26.00418091 82.77249146 C25.64682969 87.39131708 25.31685226 92.01214073 24.984375 96.6328125 C24.90840591 97.68430984 24.83243683 98.73580719 24.75416565 99.81916809 C23.65200505 115.22459153 22.69545359 130.63980836 21.72450256 146.05394363 C21.5615002 148.64086727 21.39815514 151.22776908 21.23474121 153.81466675 C19.88620251 175.17314367 18.57365926 196.53346022 17.29669189 217.89633179 C15.63655963 245.65714406 13.84233151 273.40769488 11.99850082 301.15689087 C9.73619934 335.20535899 7.53642752 369.2574792 5.375 403.3125 C5.29988316 404.49572342 5.22476631 405.67894684 5.1473732 406.89802551 C4.28319459 420.51110722 3.42040157 434.12427641 2.55869007 447.7375145 C1.74267279 460.62884416 0.92491601 473.52006334 0.10671997 486.41125488 C-0.04674755 488.82946489 -0.2001702 491.24767774 -0.35354614 493.66589355 C-1.99313754 519.51543869 -3.65082789 545.36382183 -5.3102541 571.21210003 C-5.55827177 575.07569789 -5.8061367 578.93930546 -6.05369568 582.80293274 C-6.10389516 583.58637401 -6.15409464 584.36981527 -6.20581532 585.17699718 C-6.30885876 586.78518221 -6.41189558 588.39336767 -6.51492596 590.00155354 C-6.79291281 594.33868316 -7.07160976 598.67576595 -7.35128784 603.01278687 C-8.764595 624.92922682 -10.15164669 646.84684281 -11.46484375 668.76953125 C-11.52482292 669.77078096 -11.58480209 670.77203068 -11.64659882 671.80362129 C-11.89040395 675.87540678 -12.13401831 679.94720364 -12.37748146 684.01900959 C-14.40905054 717.98863064 -16.50587542 751.94887334 -18.90359497 785.89474487 C-19.01705765 787.50145554 -19.01705765 787.50145554 -19.1328125 789.140625 C-19.24349564 790.70660934 -19.24349564 790.70660934 -19.35641479 792.30422974 C-20.14585807 803.5327361 -20.86383881 814.76551883 -21.5625 826 C-21.62254211 826.96508484 -21.68258423 827.93016968 -21.7444458 828.92449951 C-22.65597813 843.62686328 -23.51425507 858.33221832 -24.36862183 873.03799438 C-24.46459152 874.68981216 -24.46459152 874.68981216 -24.5625 876.375 C-24.62607697 877.47016937 -24.68965393 878.56533875 -24.75515747 879.69369507 C-25.48649021 892.26115414 -26.26296023 904.81818415 -27.23730469 917.36938477 C-28.01729746 927.51164022 -28.66940337 937.66082207 -29.3125 947.8125 C-29.40313721 949.2429364 -29.40313721 949.2429364 -29.49560547 950.70227051 C-29.83622027 956.0846479 -30.17543849 961.46711254 -30.51416016 966.84960938 C-31.17962551 977.42135893 -31.84952747 987.9928277 -32.51889038 998.56433105 C-32.62685212 1000.26944982 -32.73481314 1001.97456864 -32.84277344 1003.6796875 C-32.92365298 1004.95704144 -32.92365298 1004.95704144 -33.00616646 1006.2602005 C-33.39158151 1012.34791926 -33.7764532 1018.43567223 -34.16113281 1024.5234375 C-35.99179071 1053.48900893 -35.99179071 1053.48900893 -36.84765625 1066.734375 C-37.08604805 1070.42707621 -37.32437011 1074.11978189 -37.5625 1077.8125 C-37.64807663 1079.13912659 -37.64807663 1079.13912659 -37.73538208 1080.49255371 C-38.50140056 1092.39927152 -39.2275964 1104.308103 -39.9296875 1116.21875 C-39.97032003 1116.90769663 -40.01095257 1117.59664326 -40.05281639 1118.30646706 C-40.22000679 1121.14147662 -40.38712107 1123.97649066 -40.55422497 1126.81150532 C-40.68196026 1128.9785049 -40.80972727 1131.14550262 -40.9375 1133.3125 C-41.00075911 1134.38583902 -41.00075911 1134.38583902 -41.06529617 1135.48086166 C-42.34911627 1157.25025991 -43.74685484 1179.00885666 -45.2517395 1200.76428223 C-46.55896257 1219.69159527 -47.74970222 1238.62354625 -48.875 1257.5625 C-50.5270457 1285.36671108 -52.34469944 1313.15854227 -54.19657898 1340.95010376 C-55.93068798 1366.98262508 -57.60393803 1393.01663833 -59.125 1419.0625 C-60.38395783 1440.62022889 -61.75500637 1462.16706755 -63.24853516 1483.7098999 C-64.24841901 1498.14831146 -65.20121899 1512.58832999 -66.0703125 1527.03515625 C-66.13691196 1528.14142585 -66.13691196 1528.14142585 -66.20485687 1529.27004433 C-66.63805842 1536.4753111 -67.06674157 1543.68083018 -67.48768425 1550.88682365 C-68.2400473 1563.75029096 -69.02586938 1576.60935004 -70.015625 1589.45703125 C-70.12742599 1590.96011337 -70.12742599 1590.96011337 -70.2414856 1592.49356079 C-71.93485393 1613.63428742 -79.7279528 1632.30298765 -95.4375 1646.8125 C-103.67695668 1653.7886669 -111.73826828 1658.12567299 -122 1661.5625 C-122.89976562 1661.88476562 -123.79953125 1662.20703125 -124.7265625 1662.5390625 C-142.18937003 1667.92384753 -162.76050262 1665.5104457 -178.875 1657.3125 C-184.72388955 1653.92173461 -189.94981213 1650.04769267 -195 1645.5625 C-195.69738281 1644.95921875 -196.39476563 1644.3559375 -197.11328125 1643.734375 C-208.27486938 1633.41803335 -217.04233285 1616.53702372 -218.26374817 1601.26463318 C-218.26799301 1600.12470413 -218.27223785 1598.98477509 -218.27661133 1597.81030273 C-218.28230637 1596.50013687 -218.2880014 1595.18997101 -218.29386902 1593.84010315 C-218.28699625 1592.41292684 -218.27884395 1590.98575622 -218.26953125 1589.55859375 C-218.26736917 1588.82050413 -218.2652071 1588.08241451 -218.26297951 1587.32195854 C-218.19608725 1569.56686109 -217.0794979 1551.89023103 -215.86190796 1534.18327332 C-215.56233749 1529.78907515 -215.27624208 1525.39399482 -214.98828125 1520.99902344 C-213.82592755 1503.33292601 -212.60937818 1485.67040959 -211.33383179 1468.01211548 C-209.61238028 1444.1122523 -208.26856032 1420.18631032 -206.84033203 1396.26757812 C-206.62537327 1392.6679659 -206.41036572 1389.06835659 -206.1953125 1385.46875 C-206.1428046 1384.58961441 -206.09029671 1383.71047882 -206.03619766 1382.80470276 C-204.91379132 1364.02273897 -203.73122508 1345.24498165 -202.51116943 1326.46911621 C-202.08586604 1319.91737837 -201.67036577 1313.36505205 -201.2578125 1306.8125 C-199.19430551 1274.09136552 -199.19430551 1274.09136552 -198.3203125 1261.96875 C-198.23595947 1260.79807228 -198.23595947 1260.79807228 -198.14990234 1259.60374451 C-198.09302246 1258.81468216 -198.03614258 1258.02561981 -197.97753906 1257.21264648 C-196.39414804 1235.23521226 -195.05877194 1213.24510136 -193.75 1191.25 C-191.70798629 1156.93210459 -189.56607992 1122.62119761 -187.375 1088.3125 C-187.30147812 1087.16093288 -187.22795624 1086.00936577 -187.15220642 1084.82290268 C-186.30575988 1071.56640883 -185.45734072 1058.31004168 -184.60800171 1045.05373287 C-182.96681442 1019.43758526 -181.32698603 993.82136533 -179.71875 968.203125 C-175.97097763 908.52552129 -175.97097763 908.52552129 -174.4375 887.0625 C-170.78824453 835.83933681 -167.82002724 784.56578274 -164.6868906 733.30913448 C-161.94709545 688.48783716 -161.94709545 688.48783716 -160.81147766 671.0690918 C-159.95484274 657.92422376 -159.12149964 644.77788806 -158.28746414 631.63156891 C-158.16012291 629.62447452 -158.03274938 627.61738218 -157.90536499 625.61029053 C-157.37974266 617.3284213 -156.85434602 609.04653777 -156.32904053 600.76464844 C-155.88935561 593.83267764 -155.44957237 586.90071307 -155.00976562 579.96875 C-154.96665178 579.28920462 -154.92353793 578.60965924 -154.87911761 577.90952158 C-154.15770756 566.53911154 -153.43577131 555.16873499 -152.71346569 543.79838181 C-152.2544825 536.57252603 -151.79616049 529.34662882 -151.33849621 522.12068939 C-151.06761108 517.8460648 -150.79610386 513.57147988 -150.52442741 509.29690552 C-150.40196426 507.3680691 -150.27975375 505.43921661 -150.15783882 503.51034546 C-149.35262045 490.77318819 -148.48022366 478.04202873 -147.5625 465.3125 C-146.1691136 445.83161336 -145.01435989 426.33782744 -143.86956787 406.84114075 C-142.85547589 389.57490909 -141.82099305 372.31300874 -140.5625 355.0625 C-138.73069647 329.92813293 -137.29612803 304.76746604 -135.80102539 279.61132812 C-132.83133739 229.66324305 -132.83133739 229.66324305 -131.01171875 204.76733398 C-129.35773902 182.11258273 -128.01290058 159.44017505 -126.6644783 136.76569366 C-123.74331125 87.64642918 -123.74331125 87.64642918 -122.25 66.9375 C-122.19110596 66.11458466 -122.13221191 65.29166931 -122.0715332 64.44381714 C-120.20425395 38.52333073 -114.22909098 17.43298603 -93.83203125 -0.26953125 C-65.56854311 -21.90571872 -27.96217658 -22.06119311 0 0 Z " fill="#000000" transform="translate(2903,2219.4375)"/>
<path d="M0 0 C13.85476094 10.84558209 25.54845072 27.15746164 28.29928958 44.93408582 C29.00953097 50.97812719 29.1412372 56.94137521 29.12880117 63.02289575 C29.13057618 64.10713587 29.13235119 65.19137599 29.13417998 66.30847186 C29.13891956 69.94994068 29.13654705 73.59136988 29.13422108 77.23284054 C29.13617426 79.87788666 29.13852251 82.52292979 29.14134905 85.16797486 C29.14671605 90.94125171 29.14836691 96.71452042 29.1475983 102.48779958 C29.14646197 111.13075715 29.15104688 119.77370525 29.15672914 128.41666069 C29.1662374 143.14701967 29.17094756 157.87737675 29.17303848 172.60773849 C29.17516706 187.53786803 29.17942718 202.46799464 29.1862812 217.39812279 C29.18671182 218.34076079 29.18714243 219.28339879 29.1875861 220.25460158 C29.18934445 224.0937714 29.19111409 227.9329412 29.19289912 231.77211101 C29.21449628 278.31322891 29.22537716 324.8543474 29.23437535 371.39546917 C29.23730935 386.486753 29.24067925 401.57803668 29.24434257 416.66932034 C29.24460086 417.73397936 29.24485915 418.79863838 29.24512527 419.89555979 C29.24617149 424.20281446 29.24721992 428.51006912 29.24827109 432.81732379 C29.26623517 506.49193531 29.28161448 580.16654706 29.28903012 653.84116046 C29.28961409 659.62792467 29.29021136 665.41468888 29.29080774 671.20145309 C29.29098492 672.92331806 29.29098492 672.92331806 29.29116567 674.67996818 C29.29236306 686.30990778 29.29357182 697.93984738 29.29479821 709.56978698 C29.29504344 711.90162356 29.2952873 714.23346015 29.29552978 716.56529674 C29.30332017 791.46180702 29.32570547 866.35830164 29.3582062 941.25480508 C29.38155127 995.07060879 29.40310322 1048.88640938 29.41021252 1102.70221806 C29.41035954 1103.80891564 29.41050656 1104.91561323 29.41065803 1106.05584711 C29.41384283 1130.35043739 29.41589374 1154.64502765 29.41688558 1178.93961812 C29.41730032 1188.71471534 29.41785522 1198.48981254 29.41844749 1208.26490974 C29.41850816 1209.33473036 29.41856883 1210.40455097 29.41863134 1211.50679039 C29.42064739 1245.96904165 29.43488622 1280.4312744 29.4553925 1314.8935192 C29.47597364 1349.60465279 29.48386741 1384.31576499 29.47431473 1419.02690407 C29.47299629 1423.82435857 29.47181824 1428.6218131 29.47072411 1433.41926765 C29.47050426 1434.35969218 29.47028441 1435.30011671 29.4700579 1436.26903894 C29.46694465 1451.15462274 29.47726592 1466.04016562 29.49319966 1480.92573994 C29.50859183 1495.56604778 29.50969627 1510.20629907 29.49565142 1524.84660889 C29.48784734 1533.42726214 29.49093721 1542.00774253 29.51028858 1550.58837846 C29.52205635 1556.29335232 29.51920485 1561.9982004 29.50467394 1567.70316753 C29.49685013 1570.93321969 29.49727698 1574.16287097 29.51129298 1577.39291177 C29.61850334 1603.82580431 26.10963003 1626.421422 7 1646 C-8.10341351 1660.69243627 -28.05639538 1666.67411705 -48.6706543 1666.54125977 C-57.87353989 1666.26901784 -65.59269223 1664.6875803 -74 1661 C-75.134375 1660.50371094 -76.26875 1660.00742188 -77.4375 1659.49609375 C-95.71859066 1650.54956943 -108.620068 1634.23469282 -115.921875 1615.56640625 C-118.51316399 1606.99449738 -119.29379139 1598.61854201 -119.25299966 1589.69960713 C-119.25605276 1588.60966044 -119.25910585 1587.51971375 -119.26225147 1586.39673838 C-119.27003933 1582.74784188 -119.26362417 1579.09911162 -119.25726891 1575.45021439 C-119.25996254 1572.79510401 -119.26344847 1570.14000527 -119.26789337 1567.48489833 C-119.27598424 1561.69578092 -119.27666009 1555.90669943 -119.27248149 1550.11757842 C-119.26626027 1541.45098777 -119.27156252 1532.78443002 -119.2790789 1524.11784176 C-119.29154651 1509.34655014 -119.29449111 1494.57527025 -119.29224396 1479.80397415 C-119.28999532 1464.83437092 -119.29206229 1449.86477764 -119.29938889 1434.89517593 C-119.29984819 1433.94973934 -119.3003075 1433.00430275 -119.30078072 1432.03021657 C-119.30266399 1428.17960365 -119.30457537 1424.32899075 -119.3065231 1420.47837787 C-119.32681409 1380.30491767 -119.33293514 1340.13146304 -119.33410732 1299.95799831 C-119.33423682 1295.63356179 -119.3343727 1291.30912527 -119.33451414 1286.98468876 C-119.33454815 1285.9115825 -119.33458216 1284.83847623 -119.3346172 1283.7328516 C-119.335434 1259.95643455 -119.33981345 1236.18001856 -119.34482583 1212.40360207 C-119.34688253 1202.61437978 -119.34886259 1192.82515747 -119.35085833 1183.03593516 C-119.35107951 1181.95432381 -119.35130069 1180.87271245 -119.35152857 1179.75832499 C-119.36417722 1117.77445712 -119.37242674 1055.79058995 -119.37151146 993.80672073 C-119.3714799 991.48692814 -119.37144843 989.16713554 -119.37141704 986.84734294 C-119.37127027 976.37357393 -119.37109393 965.89980493 -119.37090927 955.42603592 C-119.37082703 950.7554742 -119.37074673 946.08491248 -119.37066665 941.41435077 C-119.37062586 939.07665043 -119.37058382 936.7389501 -119.37054053 934.40124976 C-119.36917988 860.47191875 -119.38381725 786.54260689 -119.41162109 712.61328125 C-119.41862305 693.98520539 -119.42556192 675.35712951 -119.43214989 656.7290535 C-119.43255564 655.58207264 -119.43296138 654.43509178 -119.43337943 653.25335393 C-119.44580771 617.90719803 -119.45334021 582.5610437 -119.45586586 547.21488571 C-119.45594576 546.10529802 -119.45602566 544.99571034 -119.45610799 543.85249878 C-119.45781447 519.49540102 -119.45833695 495.13830336 -119.45776723 470.78120555 C-119.45757426 462.06600781 -119.45747018 453.35081008 -119.45740977 444.63561235 C-119.45739395 442.46746851 -119.45737354 440.29932467 -119.45734853 438.13118083 C-119.45699578 403.57397237 -119.4683959 369.0167803 -119.48565616 334.45957654 C-119.50295006 299.65817536 -119.50734364 264.85679688 -119.49413352 230.05539321 C-119.49230891 225.24707162 -119.49062235 220.43874999 -119.48901749 215.63042831 C-119.48869731 214.6878631 -119.48837714 213.74529789 -119.48804726 212.77417009 C-119.48334023 197.84620442 -119.49205875 182.91827799 -119.50635986 167.99031969 C-119.52013967 153.31351641 -119.51965548 138.63677113 -119.50397559 123.95996914 C-119.4952088 115.35460562 -119.49736539 106.74941288 -119.51570916 98.14406349 C-119.52680211 92.42656232 -119.52334654 86.70918843 -119.50814359 80.99169704 C-119.49993384 77.75207233 -119.50004598 74.51284775 -119.51364497 71.27323154 C-119.57741606 54.9917888 -119.04234561 40.37977175 -111.25 25.6875 C-110.90565918 25.02290771 -110.56131836 24.35831543 -110.20654297 23.67358398 C-100.07679825 4.71543738 -83.42008337 -6.71775367 -63.375 -13.08984375 C-41.61490205 -18.95801831 -17.94489459 -13.23803699 0 0 Z " fill="#000000" transform="translate(2188,2218)"/>
</svg>
